<svg width="784" height="761" viewBox="0 0 784 761" fill="none" xmlns="http://www.w3.org/2000/svg">
<rect x="4" y="327.6" width="780" height="24.6" fill="#B98A5B"/>
<rect x="25.3" y="352.2" width="758.7" height="265.2" fill="#B98A5B"/>
<rect x="44.7" y="351.5" width="129.8" height="247.3" fill="#836446"/>
<rect x="174.5" y="351.5" width="129.8" height="247.3" fill="#836446"/>
<rect x="328.4" y="351.5" width="277" height="54.8" fill="#836446"/>
<rect x="328.4" y="407.1" width="277" height="54.8" fill="#836446"/>
<rect x="328.4" y="475.9" width="138.5" height="123.7" fill="#836446"/>
<rect x="466.9" y="475.9" width="138.5" height="123.7" fill="#836446"/>
<rect x="630.4" y="351.5" width="129.8" height="247.3" fill="#836446"/>
<rect x="171.3" y="350.9" width="10.2" height="247.3" fill="#B98A5B"/>
<rect x="328.4" y="403.2" width="277" height="7.6" fill="#B98A5B"/>
<rect x="461.7" y="475.9" width="10.2" height="123.7" fill="#B98A5B"/>
<path d="M650.1 475.9C655.126 475.9 659.2 471.826 659.2 466.8C659.2 461.774 655.126 457.7 650.1 457.7C645.074 457.7 641 461.774 641 466.8C641 471.826 645.074 475.9 650.1 475.9Z" fill="#B98A5B"/>
<path d="M488.2 546.8C493.226 546.8 497.3 542.726 497.3 537.7C497.3 532.674 493.226 528.6 488.2 528.6C483.174 528.6 479.1 532.674 479.1 537.7C479.1 542.726 483.174 546.8 488.2 546.8Z" fill="#B98A5B"/>
<path d="M443.2 546.8C448.226 546.8 452.3 542.726 452.3 537.7C452.3 532.674 448.226 528.6 443.2 528.6C438.174 528.6 434.1 532.674 434.1 537.7C434.1 542.726 438.174 546.8 443.2 546.8Z" fill="#B98A5B"/>
<path d="M475.912 435.883C476.714 430.922 473.342 426.25 468.381 425.447C463.419 424.645 458.747 428.017 457.945 432.979C457.143 437.94 460.514 442.612 465.476 443.414C470.437 444.217 475.11 440.845 475.912 435.883Z" fill="#B98A5B"/>
<path d="M466.9 390.5C471.926 390.5 476 386.426 476 381.4C476 376.374 471.926 372.3 466.9 372.3C461.874 372.3 457.8 376.374 457.8 381.4C457.8 386.426 461.874 390.5 466.9 390.5Z" fill="#B98A5B"/>
<path d="M199.9 483.6C204.926 483.6 209 479.526 209 474.5C209 469.474 204.926 465.4 199.9 465.4C194.874 465.4 190.8 469.474 190.8 474.5C190.8 479.526 194.874 483.6 199.9 483.6Z" fill="#B98A5B"/>
<path d="M154 483.6C159.026 483.6 163.1 479.526 163.1 474.5C163.1 469.474 159.026 465.4 154 465.4C148.974 465.4 144.9 469.474 144.9 474.5C144.9 479.526 148.974 483.6 154 483.6Z" fill="#B98A5B"/>
<rect x="40.9" y="113.8" width="226.1" height="213.8" fill="#D7A15D"/>
<rect x="57.2" y="156.4" width="193.6" height="155.6" fill="#836446"/>
<path d="M229.7 176.4C229.7 180.1 226.7 183.1 223 183.1H85C81.3 183.1 78.3 180.1 78.3 176.4C78.3 172.7 81.3 169.7 85 169.7H223C226.7 169.7 229.7 172.7 229.7 176.4Z" fill="#D7A15D"/>
<path d="M125.1 149.6C131.562 149.6 136.8 144.362 136.8 137.9C136.8 131.438 131.562 126.2 125.1 126.2C118.638 126.2 113.4 131.438 113.4 137.9C113.4 144.362 118.638 149.6 125.1 149.6Z" fill="#B98A5B"/>
<path d="M182.9 149.6C189.362 149.6 194.6 144.362 194.6 137.9C194.6 131.438 189.362 126.2 182.9 126.2C176.438 126.2 171.2 131.438 171.2 137.9C171.2 144.362 176.438 149.6 182.9 149.6Z" fill="#B98A5B"/>
<path d="M52 16.5C57.8 23.5 60.2 31.3 62 40.1C63.8 49 65.6 55.4 74.4 59.6C80.8 62.7 87.2 62.1 93.2 59.3C104.3 52.7 99.2 35.8 93.4 25.9C83 8.00001 62.2 0.800006 42.3 3.10001C40.1 3.40001 39.3 5.00001 39.4 6.70001C44.5 8.60001 49 12.8 52 16.5Z" fill="#974A3A"/>
<path d="M67.4 24.1C76.8 32.4 80.9 44.7 83.1 56.7C85.3 68.8 85.4 81.7 83.5 93.8C82.9 97.6 88.7 99.2 89.3 95.4C91.4 82 91.2 68.4 88.9 55.1C86.7 42.2 81.7 28.8 71.7 19.9C68.7 17.3 64.5 21.5 67.4 24.1Z" fill="#323131"/>
<path d="M59.7 76.3V90.7C59.7 101.3 67 110.4 77.3 113.8H95.8C106.1 110.4 113.4 101.3 113.4 90.7V76.3H59.7Z" fill="#323131"/>
<rect x="59.7" y="76" width="53.7" height="8.7" fill="#D7A15D"/>
<path d="M79.8 22.4C79.7 25.3 78.8 28.3 78 31.1C77.1 34.2 82 35.5 82.8 32.4C83.7 29.2 84.7 25.7 84.8 22.4C84.9 19.1 79.9 19.1 79.8 22.4Z" fill="#323131"/>
<path d="M67.4 41.3C70.2 43.8 74.5 45.5 78.2 46C79.5 46.2 80.9 45.7 81.3 44.3C81.6 43.1 80.9 41.4 79.6 41.2C76.8 40.8 73.1 39.7 71 37.7C68.6 35.6 65.1 39.1 67.4 41.3Z" fill="#323131"/>
<path d="M89.6 42.8C90.3 47.8 86.5 52.3 83.9 56.2C82.1 58.9 86.4 61.4 88.2 58.7C91.8 53.4 95.4 48.2 94.4 41.5C93.9 38.3 89.1 39.6 89.6 42.8Z" fill="#323131"/>
<path d="M127.1 76.3V90.7C127.1 101.3 134.4 110.4 144.7 113.8H163.2C173.5 110.4 180.8 101.3 180.8 90.7V76.3H127.1Z" fill="#323131"/>
<path d="M142.5 78.4C140.1 76.9 137.6 74.8 136.6 72.1C136.3 71.3 136.3 68.2 136.1 68.2C135.6 68.4 136.8 69.1 137.2 69.5C139 71.4 141 73.4 143.5 74.4C145 75 146.7 73.5 146.7 72C146.6 68.6 146.1 65.2 146.3 61.7C146.4 59.9 146.2 57.1 147.2 60.2C147.7 61.6 147.9 63.2 148.3 64.6C149.2 68.8 151.7 75.4 157.5 73.6C161.8 72.3 163.4 64.7 164.2 60.9C164.5 59.6 164.8 58.8 164.5 60.5C164.2 62 164.5 63.8 164.4 65.3C164.2 67.8 163.8 70.4 164.2 72.9C164.4 74.2 166.1 75 167.3 74.6C169.7 73.8 172.6 71 173.3 68.5C173.5 68.2 173.7 67.9 173.9 67.6C173.2 67.5 172.6 67.5 171.9 67.4C172.5 66.7 172.4 72.2 172.4 71.8C172 74.4 170.8 77 169.3 79.2C167.5 81.9 171.9 84.4 173.6 81.7C176.4 77.4 180.2 68.3 175.3 63.9C170.4 59.5 169 68.8 165.9 69.8C166.9 70.4 168 71 169 71.5C168.3 67.3 172.5 56.3 166 54.7C163 54 160.7 56.5 159.6 58.9C158.9 60.5 157.8 67.9 156.2 68.4C153.1 69.4 152.9 54.3 147.7 53.3C139 51.7 141.6 67.4 141.7 71.7C142.8 70.9 143.8 70.1 144.9 69.3C141.5 67.9 136.9 59.1 132.7 64.3C127.5 70.6 134.8 79.3 140 82.5C142.7 84.4 145.2 80.1 142.5 78.4Z" fill="#323131"/>
<rect x="127.1" y="76.2" width="53.7" height="8.7" fill="#D7A15D"/>
<path d="M255.1 24C249.5 30.6 246.8 38.3 244.6 46.9C242.4 55.7 240.3 61.9 232.3 65.6C226.4 68.3 220.7 67.3 215.6 64.1C206.1 56.9 211.8 40.3 217.7 30.7C228.2 13.4 247.2 7.6 264.7 11.1C266.6 11.5 267.3 13.2 267 14.9C262.4 16.7 258.1 20.6 255.1 24Z" fill="#974A3A"/>
<path d="M234.9 38.8C236.1 37.5 237.3 36.3 238.7 35.1C237.4 33.9 236.1 32.7 235.1 31.3C233.6 32.5 232.3 33.8 231 35.2C232.4 36.3 233.6 37.5 234.9 38.8Z" fill="#323131"/>
<path d="M230.3 45.2C231 44 231.8 42.8 232.6 41.6C232.1 41.1 231.6 40.6 231 40.1C230.3 39.4 229.5 38.7 228.7 38C227.5 39.6 226.5 41.2 225.5 42.9C227.1 43.7 228.7 44.5 230.3 45.2Z" fill="#323131"/>
<path d="M226.9 52.3C227.4 51 228 49.6 228.6 48.3C227 47.5 225.4 46.8 223.8 46C223.1 47.5 222.4 49 221.8 50.5C223.5 51.2 225.2 51.8 226.9 52.3Z" fill="#323131"/>
<path d="M224.5 59.6C224.9 58.3 225.3 57 225.7 55.7C224 55.1 222.3 54.6 220.7 53.9C220.2 55.3 219.8 56.8 219.4 58.3C221.1 58.5 222.8 59 224.5 59.6Z" fill="#323131"/>
<path d="M223.6 63C221.9 62.4 220.3 61.9 218.5 61.7C216 72.9 215.3 84.5 216.4 95.9C216.7 99.2 221.9 98.1 221.6 94.8C220.6 84.3 221.2 73.3 223.6 63Z" fill="#323131"/>
<path d="M194.6 76.3V90.7C194.6 101.3 201.9 110.4 212.2 113.8H230.7C241 110.4 248.3 101.3 248.3 90.7V76.3H194.6Z" fill="#323131"/>
<rect x="194.6" y="76.2" width="53.7" height="8.7" fill="#D7A15D"/>
<rect x="475.2" y="126.2" width="250.7" height="28" fill="#B77E49"/>
<path d="M520.2 205.7V141.1C520.2 138.2 517.9 135.9 515 135.9C512.1 135.9 509.8 138.2 509.8 141.1V205.7C503 208.8 498.1 217.7 498.1 228.2C498.1 241.2 505.7 251.8 515 251.8C524.3 251.8 531.9 241.2 531.9 228.2C531.9 217.7 527 208.8 520.2 205.7Z" fill="#B98A5B"/>
<path d="M526.6 232.6C526.6 241.5 521.4 248.8 515 248.8C508.6 248.8 503.4 241.6 503.4 232.6C503.4 223.7 508.6 216.4 515 216.4C521.4 216.5 526.6 223.7 526.6 232.6Z" fill="#A07B52"/>
<path d="M517.9 144.2C517.9 146.4 516.6 148.2 515 148.2C513.4 148.2 512.1 146.4 512.1 144.2C512.1 142 513.4 140.2 515 140.2C516.6 140.1 517.9 141.9 517.9 144.2Z" fill="#836446"/>
<path d="M579.2 200C579.2 204.1 575.8 207.5 571.7 207.5C567.6 207.5 564.2 204.1 564.2 200V143.4C564.2 139.3 567.6 135.9 571.7 135.9C575.8 135.9 579.2 139.3 579.2 143.4V200Z" fill="#988C79"/>
<path d="M608.9 234.3C608.9 254.8 592.3 271.5 571.7 271.5C551.2 271.5 534.5 254.9 534.5 234.3C534.5 213.8 551.1 197.1 571.7 197.1C592.3 197.1 608.9 213.7 608.9 234.3Z" fill="#323131"/>
<path d="M574.7 144.2C574.7 146.4 573.4 148.2 571.8 148.2C570.2 148.2 568.9 146.4 568.9 144.2C568.9 142 570.2 140.2 571.8 140.2C573.4 140.1 574.7 141.9 574.7 144.2Z" fill="#836446"/>
<path d="M632.4 211C632.4 214 630.3 216.5 627.7 216.5C625.1 216.5 623 214 623 211V141.4C623 138.4 625.1 135.9 627.7 135.9C630.3 135.9 632.4 138.4 632.4 141.4V211Z" fill="#B98A5B"/>
<path fill-rule="evenodd" clip-rule="evenodd" d="M614 207.5H640.4L644.1 247.9H611.3L614 207.5ZM616.4 239.9C616.4 242.5 620.5 242.5 620.5 239.9V219.8C620.5 217.2 616.4 217.2 616.4 219.8V239.9ZM629.7 239.5C629.7 242.1 625.6 242.1 625.6 239.5V219.4C625.6 216.8 629.7 216.8 629.7 219.4V239.5ZM634.8 240.4C634.8 243 638.9 243 638.9 240.4V220.3C638.9 217.7 634.8 217.7 634.8 220.3V240.4Z" fill="#B98A5B"/>
<path d="M630.6 144.2C630.6 146.4 629.3 148.2 627.7 148.2C626.1 148.2 624.8 146.4 624.8 144.2C624.8 142 626.1 140.2 627.7 140.2C629.3 140.1 630.6 141.9 630.6 144.2Z" fill="#836446"/>
<path d="M716.2 264.5C716.2 262.1 716 259.6 715.7 257.1C715.7 257.1 715.7 257.1 715.7 257C716.3 234.6 709.7 212.8 705.5 191C703.3 179.6 702.7 167.9 700.1 156.6C698.1 148.1 692.7 135.2 681.6 139.9C667.8 145.7 667.1 163.8 666.5 176.7C666.1 185.2 665.6 193.8 664.6 202.3C663.5 212.5 660.9 222.3 657.6 232C655.7 237.6 652.9 244.7 655.8 250.4C659 256.7 667.4 257.8 673.5 255.8C676.1 254.9 678.5 253.4 680.9 252.2C684 250.7 686.3 254.4 687.8 256.5C690.1 259.7 690.8 265.4 692 269.3C693.5 273.9 695.2 279.4 699 282.7C703.2 286.3 708.2 284.4 711.6 280.8C715.9 276.3 716.3 270.4 716.2 264.5Z" fill="#988C79"/>
<path fill-rule="evenodd" clip-rule="evenodd" d="M714.2 277.8C712.9 278.1 711.7 278.3 710.4 278.4C710.4 279.7 710.4 281.1 711 282.5C710.3 283.1 709.6 283.6 708.8 284C708.8 283.1 708.775 282.2 708.75 281.3L708.75 281.3L708.75 281.3C708.725 280.4 708.7 279.5 708.7 278.6C705.7 278.8 702.6 278.6 699.6 278.1L699.9 283.5C699.8 283.5 699.7 283.4 699.6 283.3C698.8 282.6 698.1 281.8 697.5 281C697.451 280.414 697.426 279.851 697.402 279.301L697.402 279.301C697.376 278.725 697.351 278.162 697.3 277.6C696.95 277.5 696.6 277.425 696.25 277.35C695.9 277.275 695.55 277.2 695.2 277.1C694.8 276.3 694.4 275.4 694.1 274.5C695.1 274.8 696.1 275.1 697.1 275.3C697 274.1 696.925 272.875 696.85 271.65L696.85 271.65L696.85 271.649C696.775 270.425 696.7 269.2 696.6 268C695 268 693.5 268 692 268.2C691.9 267.851 691.826 267.503 691.751 267.154L691.751 267.154L691.751 267.154L691.751 267.154L691.751 267.153L691.751 267.153L691.751 267.153L691.751 267.153L691.751 267.153L691.751 267.153L691.751 267.153L691.751 267.153L691.751 267.153L691.751 267.153L691.751 267.153L691.751 267.152L691.751 267.152L691.751 267.152L691.751 267.152L691.751 267.152L691.751 267.152L691.751 267.152L691.751 267.152L691.75 267.152L691.75 267.152L691.75 267.152L691.75 267.151L691.75 267.151L691.75 267.151L691.75 267.151L691.75 267.151L691.75 267.151L691.75 267.151L691.75 267.151L691.75 267.151L691.75 267.151L691.75 267.151L691.75 267.15L691.75 267.15L691.75 267.15L691.75 267.15L691.75 267.15L691.75 267.15L691.75 267.15C691.675 266.8 691.6 266.45 691.5 266.1C693.1 265.9 694.7 265.9 696.4 265.9C696.303 264.69 696.23 263.503 696.157 262.329L696.157 262.328L696.157 262.328L696.157 262.328L696.157 262.328L696.157 262.328C696.08 261.076 696.003 259.838 695.9 258.6C695.004 258.335 694.108 258.058 693.212 257.782L693.212 257.782L693.212 257.781L693.211 257.781L693.211 257.781L693.211 257.781L693.21 257.781L693.21 257.781L693.21 257.781L693.21 257.781L693.209 257.781L693.209 257.781L693.209 257.781L693.208 257.78L693.208 257.78L693.208 257.78L693.208 257.78L693.207 257.78L693.207 257.78L693.207 257.78L693.206 257.78L693.206 257.78L693.206 257.78L693.206 257.78L693.205 257.779L693.205 257.779L693.205 257.779L693.204 257.779L693.204 257.779L693.204 257.779L693.204 257.779L693.203 257.779L693.203 257.779L693.203 257.779L693.202 257.779L693.202 257.778L693.202 257.778L693.202 257.778L693.201 257.778L693.201 257.778L693.201 257.778L693.2 257.778L693.2 257.778C691.4 257.222 689.6 256.667 687.8 256.2V256.4C687.1 255.4 686.2 254.2 685.2 253.4L684.6 247.4C680.9 246.5 677.3 245.9 673.5 245.7C673.5 246.7 673.475 247.675 673.45 248.65C673.425 249.625 673.4 250.6 673.4 251.6C676.1 251.7 678.7 252.2 681.3 252.7C680.3 253.1 679.4 253.6 678.5 254.1C676.7 253.8 675 253.6 673.3 253.5C673.2 254.5 673.2 255.4 673.2 256.4C673.065 256.434 672.932 256.468 672.802 256.501C672.16 256.665 671.565 256.817 670.9 256.9C671 255.7 671 254.6 671 253.4C668.8 253.4 666.5 253.6 664.2 254.1V256.7C663.4 256.5 662.6 256.3 661.9 256V254.7C661.4 254.8 660.8 255 660.3 255.2C659.5 254.7 658.8 254.2 658.2 253.6C659.4 253.1 660.7 252.7 661.9 252.4V246.2C659.6 246.5 657.3 247 655 247.5C654.9 246.8 654.8 246.1 654.8 245.3C657.2 244.7 659.5 244.3 661.9 244C661.9 241.7 661.9 239.4 662 237.1C659.8 237.2 657.8 237.3 656.1 237.5C656.2 237.15 656.325 236.775 656.45 236.4C656.575 236.025 656.7 235.65 656.8 235.3C657.2 235.2 657.5 235.2 657.7 235.2C658.4 235.15 659.125 235.1 659.85 235.05C660.575 235 661.3 234.95 662 234.9L662.009 234.618L662.009 234.618C662.106 231.606 662.206 228.506 662.4 225.5C662.067 225.583 661.717 225.684 661.356 225.787C660.851 225.932 660.325 226.083 659.8 226.2C659.913 225.691 660.058 225.213 660.2 224.75L660.2 224.75L660.2 224.75C660.308 224.394 660.413 224.047 660.5 223.7C661.1 223.5 661.8 223.3 662.5 223.2C662.6 220.5 662.8 217.8 663 215.1C662.95 215.1 662.875 215.125 662.8 215.15C662.725 215.175 662.65 215.2 662.6 215.2C662.8 214.5 663 213.8 663.1 213.1H663.2C663.3 212.8 663.3 212.6 663.3 212.3C663.9 209.2 664.4 206 664.8 202.7C665.6 195.4 666.1 188.1 666.5 180.8L667.1 175.7C666.9 175.8 666.8 175.9 666.7 176C666.7 175.612 666.724 175.2 666.748 174.776C666.774 174.326 666.8 173.863 666.8 173.4L667.4 173.1C667.45 172.55 667.525 171.975 667.6 171.4C667.675 170.825 667.75 170.25 667.8 169.7C667.85 169.35 667.9 169.025 667.95 168.7L667.95 168.7C668 168.375 668.05 168.05 668.1 167.7C667.8 167.8 667.5 168 667.2 168.2L667.5 165.5C667.65 165.4 667.825 165.325 668 165.25L668 165.25L668 165.25L668 165.25L668 165.25C668.175 165.175 668.35 165.1 668.5 165C668.539 164.741 668.578 164.479 668.617 164.217L668.617 164.217C668.88 162.455 669.152 160.628 669.5 158.8C669.1 159.2 668.7 159.6 668.4 160.1C668.6 158.8 668.9 157.5 669.3 156.2C669.5 156 669.8 155.8 670 155.7C670.15 155.1 670.275 154.475 670.4 153.85C670.525 153.225 670.65 152.6 670.8 152C671.8 149.7 673 147.6 674.6 145.7C674.6 145.8 674.575 145.875 674.55 145.95C674.525 146.025 674.5 146.1 674.5 146.2C677.1 145.2 679.9 144.7 682.7 144.5C683.4 142.8 684.1 141.1 684.9 139.5C685.8 139.4 686.6 139.4 687.4 139.5V139.5C686.6 141.1 685.8 142.7 685.1 144.4C687.1 144.4 689 144.6 691 144.9C691.3 143.7 691.7 142.6 692.1 141.5C692.7 142 693.3 142.6 693.9 143.2C693.8 143.55 693.675 143.9 693.55 144.25C693.425 144.6 693.3 144.95 693.2 145.3C693.622 145.427 694.027 145.536 694.421 145.642C694.96 145.787 695.48 145.927 696 146.1C696.9 147.6 697.7 149.3 698.4 151C698.25 151.9 698.125 152.775 698 153.65C697.875 154.525 697.75 155.4 697.6 156.3C698.6 156.7 699.5 157.1 700.4 157.6C700.6 158.5 700.8 159.5 701 160.5L701 160.5C699.8 159.7 698.5 159.1 697.2 158.5C697.05 159.848 696.9 161.171 696.751 162.494L696.75 162.5L696.749 162.506C696.6 163.829 696.45 165.152 696.3 166.5C698.1 167.3 699.9 168.2 701.5 169.2V162.7C702.5 167.867 703.153 173.033 703.806 178.2C703.936 179.233 704.067 180.267 704.2 181.3C704.2 181.238 704.162 181.215 704.109 181.182C704.076 181.162 704.038 181.138 704 181.1C704.05 182.3 704.075 183.5 704.1 184.7L704.1 184.701C704.125 185.9 704.15 187.1 704.2 188.3C704.6 188.5 705 188.8 705.4 189.1L705.4 189.1L705.4 189.1C705.45 189.45 705.525 189.825 705.6 190.2C705.675 190.575 705.75 190.95 705.8 191.3C705.854 191.408 705.879 191.546 705.906 191.697C705.929 191.825 705.954 191.962 706 192.1C705.7 191.9 705.425 191.7 705.15 191.5L705.15 191.5L705.15 191.5C704.875 191.3 704.6 191.1 704.3 190.9L704.6 197.5V197.7C704.834 197.83 705.074 197.96 705.318 198.091L705.318 198.091C706.013 198.466 706.734 198.856 707.4 199.3L708 202.3C706.9 201.6 705.8 200.9 704.7 200.3L705.3 208.1L709.8 210.5C710 211.4 710.2 212.4 710.4 213.399L710.4 213.4C708.8 212.5 707.2 211.6 705.5 210.7C705.7 213.1 705.9 215.5 706.2 217.9C706.591 218.052 706.987 218.204 707.385 218.357L707.385 218.357L707.385 218.357L707.386 218.357C708.821 218.909 710.291 219.474 711.7 220.1C711.8 220.55 711.875 221 711.95 221.45C712.025 221.9 712.1 222.35 712.2 222.8C710.3 221.9 708.4 221.1 706.4 220.4C706.549 221.694 706.699 222.964 706.848 224.233L706.848 224.233L706.848 224.234L706.848 224.234L706.848 224.234L706.848 224.235L706.848 224.235L706.848 224.235L706.848 224.235L706.848 224.236L706.848 224.236L706.848 224.236L706.849 224.237L706.849 224.237L706.849 224.237L706.849 224.238L706.849 224.238L706.849 224.238L706.849 224.238L706.849 224.239L706.849 224.239L706.849 224.239L706.849 224.24L706.849 224.24L706.849 224.24L706.849 224.241L706.849 224.241L706.849 224.241L706.849 224.241L706.849 224.242L706.849 224.242L706.849 224.242L706.849 224.243L706.849 224.243L706.849 224.243L706.849 224.244L706.849 224.244L706.849 224.244L706.849 224.244L706.849 224.245L706.849 224.245L706.85 224.25L706.851 224.255C707 225.528 707.15 226.802 707.3 228.1C708.347 228.399 709.37 228.674 710.392 228.948L710.392 228.948L710.392 228.948L710.392 228.948L710.393 228.948L710.393 228.948L710.393 228.948L710.393 228.948L710.393 228.948L710.393 228.948L710.394 228.948L710.394 228.948L710.394 228.948L710.394 228.948L710.394 228.948L710.394 228.949L710.395 228.949L710.395 228.949L710.395 228.949L710.395 228.949L710.395 228.949L710.396 228.949L710.396 228.949L710.396 228.949L710.396 228.949L710.396 228.949L710.396 228.949L710.397 228.949L710.397 228.949L710.397 228.949L710.397 228.949L710.397 228.949L710.397 228.949L710.398 228.949L710.398 228.949L710.398 228.949L710.398 228.949L710.398 228.95L710.398 228.95L710.399 228.95L710.399 228.95L710.399 228.95L710.4 228.95L710.401 228.95L710.402 228.95C711.426 229.225 712.451 229.5 713.5 229.8C713.55 230.2 713.625 230.6 713.7 231L713.7 231C713.775 231.4 713.85 231.8 713.9 232.2C711.7 231.7 709.6 231.1 707.5 230.5L707.5 230.5C707.524 230.678 707.547 230.854 707.571 231.029L707.571 231.029C707.746 232.332 707.912 233.566 708 234.8C708.2 236.899 708.4 239.098 708.6 241.297L708.6 241.3C710.8 241.9 713 242.4 715.2 242.8C715.248 243.236 715.273 243.648 715.298 244.049V244.049C715.324 244.475 715.348 244.888 715.4 245.3C713.2 245 711 244.5 708.8 244L708.845 244.511C709.029 246.627 709.207 248.671 709.3 250.8L709.3 250.8C711.4 251 713.5 251.2 715.7 251.2C715.8 251.9 715.8 252.7 715.8 253.4C713.7 253.4 711.6 253.2 709.5 253L709.5 253C709.7 255.5 709.8 257.9 709.9 260.4C711.9 260.8 714 261.1 716.1 261.2C716.1 261.55 716.125 261.9 716.15 262.25C716.175 262.6 716.2 262.95 716.2 263.3C714.1 263.2 712 262.9 709.9 262.5C709.95 263.35 709.975 264.175 710 265L710 265C710.025 265.825 710.05 266.65 710.1 267.5C712.1 267.8 714.2 268.1 716.2 268.2C716.2 268.9 716.2 269.6 716.1 270.3L715.557 270.243C713.821 270.061 712.01 269.872 710.2 269.6C710.25 270.7 710.275 271.8 710.3 272.899L710.3 272.9L710.3 272.9C710.325 274 710.35 275.1 710.4 276.2C712 276 713.6 275.7 715.2 275.3C715.137 275.469 715.073 275.642 715.009 275.818L715.009 275.818C714.769 276.476 714.516 277.169 714.2 277.8ZM697.702 215.633L697.702 215.633L697.702 215.633C699.716 216.196 701.782 216.774 703.8 217.4C703.5 214.9 703.2 212.3 703.1 209.8C700.4 208.5 697.7 207.3 694.9 206.2C694.9 209.1 695 212 695.1 214.9C695.952 215.143 696.822 215.387 697.702 215.633ZM702.8 207.2C700.2 206 697.5 204.8 694.8 203.8V196.3C697.4 197.1 699.9 198.1 702.3 199.3C702.4 202 702.6 204.6 702.8 207.2ZM682 212.2C681.9 209.1 681.9 205.9 682 202.8C679.5 202.4 677 202.3 674.5 202.4C674.3 205.4 674.1 208.5 674 211.6H674.6C677.1 211.7 679.5 211.9 682 212.2ZM674.85 196.6L674.85 196.6L674.85 196.6C674.925 195.425 675 194.25 675.1 193.1C676.512 193.1 677.834 193.189 679.236 193.282H679.236L679.5 193.3C679.95 193.35 680.425 193.4 680.9 193.45L680.9 193.45C681.375 193.5 681.85 193.55 682.3 193.6C682.2 195.9 682.1 198.2 682 200.6C679.6 200.2 677.1 200.1 674.6 200.1C674.7 198.95 674.775 197.775 674.85 196.6ZM682 214.4C679.5 214.1 677 213.9 674.5 213.9H673.9C673.8 216.8 673.7 219.6 673.6 222.399L673.6 222.4C676.5 222.4 679.4 222.6 682.3 222.9C682.25 221.5 682.2 220.076 682.15 218.651L682.15 218.65L682.15 218.649C682.1 217.224 682.05 215.8 682 214.4ZM682.4 225C682.6 228.5 682.9 231.9 683.2 235.3C681.1 235 679 234.8 676.8 234.8H673.3C673.3 231.4 673.4 227.9 673.5 224.5C676.5 224.5 679.5 224.7 682.4 225ZM681.457 191.271L681.457 191.272C681.802 191.318 682.151 191.365 682.5 191.4C682.7 188.5 682.9 185.6 683.3 182.8C680.9 182.5 678.6 182.5 676.2 182.7C675.9 185.4 675.6 188.2 675.4 190.9C676.8 190.9 678.2 191 679.6 191.1L679.6 191.1C680.186 191.1 680.814 191.185 681.457 191.271L681.457 191.271ZM676.4 180.4C676.55 179.25 676.7 178.125 676.85 177C677 175.875 677.15 174.75 677.3 173.6C679.7 173.7 682.2 174 684.2 174.4C684.167 174.634 684.133 174.867 684.1 175.099C683.834 176.947 683.578 178.734 683.4 180.6C681.1 180.2 678.8 180.2 676.4 180.4ZM684.6 172.1C684.9 170 685.3 167.8 685.7 165.6C683.4 165.2 681.1 164.9 678.9 164.9C678.4 167 678 169.2 677.7 171.3C679.7 171.4 681.6 171.6 683.4 171.9C683.8 171.9 684.2 172 684.6 172.1L684.6 172.1ZM679.3 162.8C679.8 160.4 680.4 158 681.1 155.6C681.613 155.6 682.153 155.626 682.678 155.652L682.678 155.652H682.678H682.678H682.678H682.678C683.176 155.676 683.662 155.7 684.1 155.7L684.1 155.7C685.3 155.8 686.5 155.9 687.8 156.1C687.2 158.5 686.7 160.9 686.2 163.4C683.9 163 681.6 162.8 679.3 162.8ZM692.5 195.7C689.8 194.9 687.2 194.3 684.5 193.9C684.4 196.3 684.3 198.6 684.2 200.9C687 201.5 689.7 202.2 692.5 203.1V195.7ZM692.6 193.5C690 192.8 687.3 192.2 684.7 191.8L684.7 191.8C684.9 188.9 685.1 186 685.4 183.2C687.9 183.7 690.3 184.4 692.7 185.3C692.6 188 692.6 190.7 692.6 193.5ZM686.5 174.8C686.2 176.8 685.9 178.9 685.7 180.9C688.1 181.3 690.5 182 692.9 182.9L693.2 176.6C691.212 175.908 689.223 175.441 687.364 175.004L687.362 175.003L687.356 175.002L687.355 175.002L687.349 175L687.347 175L687.341 174.999L687.339 174.998C687.056 174.932 686.776 174.866 686.5 174.8ZM687.74 166.979L687.74 166.979C687.793 166.688 687.846 166.395 687.9 166.1C689.9 166.6 691.9 167.3 693.8 168.1L693.752 168.604C693.569 170.522 693.392 172.369 693.3 174.3C691.1 173.6 688.9 173 686.8 172.6C687.06 170.695 687.395 168.864 687.74 166.979L687.74 166.979ZM689.707 157.714C689.207 159.784 688.719 161.807 688.3 163.9C690.3 164.4 692.2 165 694.1 165.7C694.3 163.1 694.6 160.4 695 157.8C694.808 157.744 694.617 157.687 694.427 157.631L694.422 157.629L694.421 157.629C692.933 157.188 691.506 156.766 690 156.5C689.904 156.901 689.808 157.299 689.712 157.696L689.709 157.708L689.707 157.714ZM702 196.4V196.9C699.6 195.8 697.2 194.9 694.7 194.1C694.7 191.4 694.8 188.8 694.9 186.2C697.2 187.2 699.5 188.5 701.7 189.8L702 196.4ZM695 183.8C697.3 184.8 699.5 185.9 701.7 187.2C701.6 184.8 701.5 182.4 701.5 180C699.5 178.9 697.4 178.1 695.3 177.3C695.25 178.4 695.2 179.475 695.15 180.55C695.1 181.625 695.05 182.7 695 183.8ZM701.4 172C701.4 173.8 701.4 175.6 701.5 177.4C699.6 176.4 697.6 175.6 695.5 174.9C695.6 172.9 695.8 170.9 696 168.9C697.9 169.9 699.7 170.9 701.4 172ZM696.5 148.7C695.2 148.3 693.9 147.9 692.5 147.6C692.418 147.869 692.336 148.137 692.254 148.404L692.254 148.404C691.639 150.417 691.041 152.369 690.6 154.4C692.2 154.7 693.8 155.1 695.4 155.6C695.7 153.3 696.1 151 696.5 148.7ZM684.1 146.7C686.1 146.7 688.2 146.8 690.2 147.2C689.5 149.5 688.9 151.8 688.3 154.1C686.6 153.8 684.9 153.6 683.3 153.5C683.05 153.5 682.8 153.475 682.55 153.45C682.3 153.425 682.05 153.4 681.8 153.4C682.5 151.1 683.3 148.9 684.1 146.7ZM681.7 146.9C678.9 147.1 676.2 147.7 673.7 148.8C673.2 150.7 672.8 152.7 672.4 154.8C674.6 154 677.1 153.6 679.5 153.5C680.2 151.2 680.9 149.1 681.7 146.9ZM671.9 157.2C674 156.2 676.5 155.8 678.9 155.6C678.3 158 677.7 160.4 677.2 162.8C675 163 672.9 163.4 670.8 164.1C671.05 162.269 671.369 160.37 671.699 158.401L671.699 158.4L671.699 158.4L671.699 158.4L671.7 158.397L671.701 158.391L671.702 158.383L671.703 158.375L671.705 158.368C671.769 157.981 671.835 157.592 671.9 157.2ZM676.7 165.2C674.5 165.4 672.4 165.9 670.4 166.7C670.1 168.5 669.9 170.4 669.7 172.3C671.6 171.8 673.6 171.5 675.6 171.4C675.858 169.591 676.191 167.857 676.534 166.068L676.534 166.068L676.534 166.068L676.534 166.066L676.535 166.061C676.59 165.775 676.645 165.489 676.7 165.2ZM669.4 174.6C671.2 173.9 673.2 173.6 675.2 173.5C675.105 174.226 675.001 174.962 674.895 175.702L674.895 175.702L674.895 175.702L674.895 175.702L674.895 175.702L674.895 175.702L674.895 175.702L674.895 175.703L674.895 175.703L674.895 175.703L674.895 175.703C674.667 177.306 674.437 178.927 674.3 180.5C672.4 180.8 670.5 181.2 668.5 181.9C668.8 179.5 669.1 177.1 669.4 174.6ZM664 252.1C666.3 251.7 668.6 251.6 670.9 251.6V245.7H670.4C668.3 245.7 666.1 245.9 664 246.1V252.1ZM671 243.6C668.7 243.6 666.4 243.7 664.1 243.9C664.1 242.8 664.125 241.675 664.15 240.55L664.15 240.55L664.15 240.55C664.175 239.425 664.2 238.3 664.2 237.2C666.5 237.1 668.9 237.1 671 237.1V243.6ZM664.576 234.988C666.776 234.892 668.892 234.8 671.1 234.8C671.1 231.494 671.195 228.189 671.292 224.792L671.3 224.5C669.1 224.6 666.9 224.8 664.7 225.2C664.5 228.5 664.4 231.7 664.3 235L664.576 234.988ZM671.3 222.4C669.1 222.5 667 222.7 664.8 223C664.9 221.6 664.975 220.225 665.05 218.85C665.125 217.475 665.2 216.1 665.3 214.7C667.4 214.3 669.5 214 671.6 213.9C671.5 216.8 671.4 219.6 671.3 222.399L671.3 222.4ZM665.5 212.7C667.5 212.2 669.6 211.9 671.7 211.7C671.8 208.7 672 205.6 672.3 202.6C670.3 202.8 668.3 203.2 666.3 203.8C666.2 204.85 666.1 205.925 666 207C665.9 208.075 665.8 209.15 665.7 210.2C665.65 210.6 665.625 211.025 665.6 211.45C665.575 211.875 665.55 212.3 665.5 212.7ZM672.6 197.7C672.55 198.15 672.525 198.575 672.5 199C672.475 199.425 672.45 199.85 672.4 200.3C670.4 200.5 668.4 200.8 666.4 201.4C666.55 200.15 666.675 198.875 666.8 197.6C666.925 196.325 667.05 195.05 667.2 193.8C669.1 193.5 671.1 193.3 673 193.2C672.95 193.95 672.875 194.7 672.8 195.45C672.725 196.2 672.65 196.95 672.6 197.7ZM667.9 187.95C667.775 189.1 667.65 190.25 667.5 191.4C669.4 191.1 671.3 190.9 673.3 190.8C673.48 188.461 673.741 186.122 674.01 183.71L674.1 182.9C672.1 183.2 670.2 183.8 668.3 184.5C668.15 185.65 668.025 186.8 667.9 187.95ZM673.2 243.7C673.2 242.587 673.226 241.474 673.251 240.375C673.276 239.3 673.3 238.238 673.3 237.2C676.7 237.2 679.4 237.2 680.2 237.3C680.54 237.334 680.892 237.356 681.247 237.379H681.247C681.937 237.423 682.64 237.468 683.3 237.6C683.395 238.791 683.513 239.982 683.632 241.184C683.763 242.505 683.895 243.839 684 245.2C680.5 244.3 676.8 243.8 673.2 243.7ZM692.6 205.4C689.8 204.4 687 203.6 684.2 203.1C684.1 206.3 684.1 209.4 684.1 212.6C687 213 689.9 213.7 692.8 214.4L692.8 214.4C692.75 212.9 692.725 211.4 692.7 209.9C692.675 208.4 692.65 206.9 692.6 205.4ZM684.2 214.7C687.1 215.2 690.1 215.9 692.9 216.6L692.9 216.6C693 219.3 693.1 222 693.3 224.7C690.4 224.1 687.5 223.5 684.5 223.1C684.4 220.4 684.3 217.6 684.2 214.7ZM684.7 225.4C684.8 225.8 684.8 226.1 684.8 226.5C684.85 227.275 684.9 228.044 684.95 228.813L684.95 228.814C685.1 231.119 685.25 233.425 685.4 235.9C688.3 236.3 691.2 237 694 237.7C693.8 234.1 693.6 230.6 693.4 227.1C690.5 226.4 687.6 225.8 684.7 225.4ZM685.7 237.9C688.374 238.361 690.963 239.077 693.624 239.813L693.638 239.817L693.669 239.826L694.3 240L694.339 240.522L694.339 240.523C694.526 243.037 694.707 245.475 694.8 248C692.1 247.3 689.4 246.6 686.7 245.8C686.6 245.8 686.5 245.8 686.4 245.7C686.1 243 685.9 240.5 685.7 237.9ZM686.7 248L687.3 254.3C690 255.1 692.7 255.9 695.5 256.8C695.4 255.7 695.325 254.625 695.25 253.55C695.175 252.475 695.1 251.4 695 250.3C694.4 250.15 693.8 249.975 693.2 249.8C692.6 249.625 692 249.45 691.4 249.3C689.8 248.8 688.3 248.4 686.7 248ZM695.5 225.3C695.45 223.95 695.375 222.625 695.3 221.3C695.225 219.975 695.15 218.65 695.1 217.3C695.724 217.472 696.352 217.644 696.983 217.817L696.984 217.817L696.986 217.818C699.292 218.449 701.646 219.094 704 219.8C704.3 222.4 704.6 225 704.9 227.7C701.8 226.8 698.7 226 695.5 225.3ZM705.2 230C702 229.1 698.9 228.3 695.7 227.5C695.9 231.098 696.1 234.595 696.3 238.093L696.3 238.1C699.7 239 703 239.9 706.3 240.8C706.1 238.9 705.9 236.9 705.7 234.9C705.6 233.3 705.4 231.6 705.2 230ZM698 241.047L698.004 241.048C700.175 241.695 702.304 242.331 704.5 242.9C705.2 243.1 705.9 243.3 706.6 243.4C706.8 245.7 707 248.1 707.1 250.4C703.7 249.9 700.4 249.2 697.1 248.4C696.9 246.733 696.789 244.978 696.678 243.222C696.622 242.344 696.567 241.467 696.5 240.6C697.003 240.749 697.503 240.898 698 241.047ZM707.2 252.9C703.9 252.4 700.5 251.7 697.2 250.9C697.304 252.042 697.381 253.157 697.459 254.288L697.459 254.288L697.459 254.288C697.531 255.335 697.604 256.394 697.7 257.5C701 258.5 704.3 259.4 707.6 260.1L707.6 260.1C707.5 257.7 707.4 255.3 707.2 252.9ZM698.3 266.1C698.197 264.962 698.12 263.823 698.042 262.671C697.97 261.596 697.897 260.51 697.8 259.4C701.1 260.4 704.4 261.3 707.7 262.1C707.75 262.95 707.775 263.8 707.8 264.65L707.8 264.65L707.8 264.65C707.825 265.5 707.85 266.35 707.9 267.2C707.1 267.1 706.3 266.994 705.5 266.887C703.1 266.569 700.7 266.25 698.3 266.1ZM698.65 271.9C698.725 273.175 698.8 274.45 698.9 275.7C702 276.3 705.1 276.5 708.1 276.3C708.05 275.138 708.025 273.95 707.999 272.75C707.975 271.575 707.95 270.387 707.9 269.2C707.05 269.094 706.206 268.98 705.366 268.867C703.045 268.555 700.75 268.247 698.4 268.1C698.5 269.35 698.575 270.625 698.65 271.9Z" fill="#D5CFBF"/>
<rect x="413.2" y="0.600006" width="56.2" height="76.3" fill="#974A3A"/>
<rect x="419.6" y="16" width="42.8" height="16.9" fill="#D7A15D"/>
<rect x="451.5" y="28" width="41.8" height="49" fill="#758149"/>
<path d="M484.1 52.4C484.1 58.9 478.9 64.1 472.4 64.1C465.9 64.1 460.7 58.9 460.7 52.4C460.7 45.9 465.9 40.7 472.4 40.7C478.8 40.7 484.1 46 484.1 52.4Z" fill="#D5CFBF"/>
<rect x="559.7" y="6.60001" width="34.8" height="70.3" fill="#D7A15D"/>
<rect x="564.4" y="19.5" width="12.7" height="50.2" fill="#974A3A"/>
<path d="M650.8 68.1C650.8 73 646.8 77.1 641.8 77.1H617.4C612.5 77.1 608.4 73.1 608.4 68.1L610.3 39.3C610.3 34.4 612.4 24.9 617.4 24.9H641.8C646.7 24.9 648.4 32.4 648.4 37.3L650.8 68.1Z" fill="#D5CFBF"/>
<rect x="615.3" y="16.3" width="28.9" height="8.6" fill="#974A3A"/>
<path d="M547.7 66.6C547.7 72.6 543.7 77.4 538.7 77.4H514.3C509.4 77.4 505.3 72.6 505.3 66.6V37.4C505.3 31.4 507.3 19.5 514.3 14.5H538.7C545.1 17.8 547.7 28.7 547.7 34.7V66.6Z" fill="#D5CFBF"/>
<rect x="512.2" y="4.10001" width="28.9" height="10.3" fill="#D7A15D"/>
<path d="M697.5 68.8C697.5 73.5 694.3 77.3 690.4 77.3H671.1C667.2 77.3 664 73.5 664 68.8V36.2C664 31.5 667.2 27.7 671.1 27.7H690.4C694.3 27.7 697.5 31.5 697.5 36.2V68.8Z" fill="#D5CFBF"/>
<rect x="669.4" y="19.5" width="22.8" height="8.2" fill="#D7A15D"/>
<rect x="381.1" y="76.9" width="344.8" height="22.4" fill="#B77E49"/>
<path d="M98.1 618.4C98.1 629.1 91.8 637.7 83.9 637.7H28.4C20.6 637.7 14.2 629 14.2 618.4L0.299988 509.1C0.299988 498.4 20.6 500.8 28.4 500.8H83.9C91.7 500.8 114.1 498.5 114.1 509.1L98.1 618.4Z" fill="#869258"/>
<path d="M66.2 531.2C52.9 531.2 39.6 531.1 26.4 530.7C18.7 530.5 10.9 530.2 3.20001 530.4L4.30001 539.4C9.90001 539.3 15.6 539.3 21.3 539.5C37 539.8 52.6 539.6 68.3 539.7C82.1 539.7 96 540 109.8 540.1L111.1 531.2H66.2Z" fill="#616D3F"/>
<path d="M381.6 180.8C381 179.2 379.9 177.9 378.9 176.7C376.8 174.1 377.4 172.4 378.4 169.5C379.6 166 378.9 162.9 376.6 160C375.6 158.7 374.4 157.9 373.1 157C371 155.6 370.9 152.1 370.9 149.9C370.9 144.7 370.4 141.1 366.2 137.6C365.5 137 364.7 137 364.1 137.3C358.9 134 353.8 139 349.9 143C345 147.9 338.2 149.9 334.4 156C332.4 159.1 331.7 162.9 331.1 166.5C330.2 172 328.2 177 329 182.7C329.8 189 333.9 195.7 340.9 195.1C344.2 194.8 347.3 193.8 350.6 194.6C354.6 195.5 357.9 198 361.8 199.1C368.9 201.1 377.3 196.6 380.8 190.5C382.4 187.6 382.8 183.8 381.6 180.8Z" fill="#323131"/>
<path d="M494.4 330.2C488.8 331.3 483.5 333 477.7 333.3C477.7 332.7 477.7 332.1 477.7 331.5C483.3 330.3 486.1 329.7 491.3 327.1C491.5 327 493.1 325.7 493.1 325.5C493.1 322.3 490.3 322.4 487.6 323.7C482.9 325.9 480.2 326.2 475.2 327.3C471.9 327.6 468.7 328.4 465.6 329.2C467.1 326 468.7 322.5 466.8 321.9C464.6 321.1 462.9 323.2 461.8 324.8C461 326 460.4 327.4 459.4 328.5C458.6 329.4 457.6 330 456.5 330.5C441 329.1 425.6 324.1 413.9 313.5C407.1 307.4 402.9 299.8 399.8 291.3C395.9 280.6 393.5 269.2 392.1 257.9C390.5 244.9 389.8 232 386.3 219.3C383.5 209 378.1 196.1 365.9 195C365.7 195 365.5 195 365.3 195C365.1 194.8 364.8 194.7 364.5 194.6C357.8 192.3 351.5 199.9 349.8 205.6C347.3 214 350 224 352.4 232.2C358.1 252.2 360.8 272.9 368.1 292.4C375 311 386.3 327.6 402.6 339.1C409.7 344.1 418.1 348.3 426.7 350C433.9 351.4 441.2 352.2 448.5 352.3C448.7 352.3 448.8 352.3 449 352.3C449.1 352.3 449.3 352.4 449.4 352.4C454 352.7 458.8 351.6 463.3 351C465.9 350.7 468.5 350.4 471.1 350.2C472.2 350.1 473.5 350.3 474.7 350.2C476 350.3 477.4 350.4 478.7 350.5C481.3 350.7 483.7 351.5 486.3 351.1C487.5 350.9 489 350 487.8 348.7C486.3 347.3 483.6 346.7 481.8 346C480.7 345.6 479.7 345.2 478.7 344.7C478.7 344.2 478.7 343.8 478.7 343.3C484.2 344.6 490.1 345.2 495.4 343.6C495.7 343.5 495.9 343.2 495.9 342.9C496 340.4 494.4 339.8 492.1 340C487.4 340.3 482.7 339.7 478.2 338.4C478.2 338.2 478.1 337.9 478.1 337.6C485.1 337.9 491.8 335.9 498.5 334.1C498.8 334 499.1 333.7 499 333.4C499.2 330.3 497.2 329.6 494.4 330.2Z" fill="#D8AA93"/>
<path d="M356.7 248.7C361.5 245.8 366.5 243.3 371.6 241C377.4 238.4 383.3 235.8 389.5 234C388.8 229 387.8 224.1 386.5 219.1C383.7 208.8 378.3 195.9 366.1 194.8C365.9 194.8 365.7 194.8 365.5 194.8C365.3 194.6 365 194.5 364.7 194.4C358 192.1 351.7 199.7 350 205.4C347.5 213.8 350.2 223.8 352.6 232C354.1 237.5 355.4 243.1 356.7 248.7Z" fill="#869258"/>
<path d="M378 221.3C380.1 220.7 382.3 220.1 384.5 219.6C384.1 218.4 383.7 217.2 383.2 216.1C381.1 216.6 379 217.2 376.9 217.8C377.3 218.9 377.6 220.1 378 221.3Z" fill="#E4E3DE"/>
<path d="M371.7 219.3C369.6 220 367.5 220.6 365.5 221.4C366 222.5 366.4 223.7 366.9 224.9C368.8 224.2 370.7 223.6 372.6 223C372.2 221.8 371.9 220.5 371.7 219.3Z" fill="#E4E3DE"/>
<path d="M361 223.1C359 223.9 356.9 224.8 354.9 225.7C355.3 226.9 355.6 228.1 356 229.3C358 228.4 360 227.5 362 226.7C361.7 225.5 361.3 224.3 361 223.1Z" fill="#E4E3DE"/>
<path d="M380.1 228.8C380.2 229.1 380.2 229.3 380.3 229.6C382.4 229 384.5 228.3 386.7 227.8C386.4 226.6 386.1 225.4 385.8 224.2C383.6 224.8 381.5 225.4 379.3 226.1C379.6 226.9 379.9 227.9 380.1 228.8Z" fill="#E4E3DE"/>
<path d="M373.9 227.7C372 228.3 370.2 228.9 368.3 229.6C368.6 230.8 369 232 369.3 233.2C371.2 232.5 373.1 231.9 375.1 231.3C374.7 230.1 374.3 228.9 373.9 227.7Z" fill="#E4E3DE"/>
<path d="M363.4 231.5C361.4 232.3 359.4 233.1 357.4 234C357.7 235.2 358.1 236.4 358.4 237.6C360.4 236.7 362.4 235.9 364.4 235.1C364 233.8 363.7 232.7 363.4 231.5Z" fill="#E4E3DE"/>
<path d="M424.9 672.7C424.4 665.3 417.9 658.4 413.6 652.9C406.9 644.4 399.7 633.8 400.5 622.5C400.7 619.5 398.3 617.6 396 617.4C390.7 613.7 384.2 612.1 378 610.6C371.7 609.1 365.2 608.2 358.8 607.1C357 604.7 352.7 604.1 351 607.6C346.9 616.1 341.6 624.2 339.9 633.6C338.4 642.2 342.7 650.4 348 656.9C357.1 668 370.3 676.7 382.8 683.4C392.3 688.5 406.5 694.6 416.9 688.5C422.2 685.4 425.4 678.7 424.9 672.7Z" fill="#616D3F"/>
<path d="M347.1 679.1C345.4 671.9 337.9 666.1 332.7 661.4C324.7 654.2 315.8 644.9 314.7 633.6C314.4 630.6 311.7 629.1 309.4 629.3C303.5 626.6 296.8 626 290.5 625.6C284 625.2 277.5 625.3 271 625.3C268.8 623.2 264.5 623.3 263.4 627.1C260.7 636.2 256.8 645 256.8 654.6C256.8 663.4 262.3 670.7 268.6 676.2C279.4 685.6 293.9 692 307.4 696.5C317.6 699.9 332.6 703.6 341.8 695.9C346.6 692.2 348.6 685 347.1 679.1Z" fill="#616D3F"/>
<path d="M422.3 627C418.6 609.5 414.9 592 411.6 574.4C405.7 543.3 400 511.9 398.4 480.3C394.7 454 392.6 427.5 391.9 393C391.3 388.5 390.6 384 389.9 379.5C388.2 369.7 386.2 360.2 383.4 350.6C382.3 347.3 382.4 344.5 381.1 339.9C380.9 339.4 378 325.5 376.7 321.2C360.4 324.6 343 327.8 326.7 324.3C324.6 334.7 322.6 345.2 322 355.8C321.5 363.6 322.2 371.2 323.4 378.9C325.6 393.6 328.4 408.3 331 423C334.2 440.8 336.8 458.7 337.4 476.8C338.1 497.6 336.8 518.4 336.1 539.1C334.8 577.1 333.9 615.2 334.3 653.3C333.8 654 333.7 655 334.5 655.8C339.9 660.7 347.5 661.5 354.5 662C364.1 662.7 373.4 662.5 383 661.1C391.7 659.9 400.4 658.3 409 656.6C415.1 655.4 421.7 654.1 427.3 651C425.4 643.1 424 635 422.3 627Z" fill="#B77E49"/>
<path d="M355 330.7C354.8 330.1 354.3 329.6 353.4 329.5C330.8 329.1 308.7 324.1 286.8 319C286 318.8 285.3 319.1 284.8 319.7C284.7 319.7 284.5 319.6 284.4 319.6C281 331.3 276.8 342.7 274.1 354.5C270.4 370.4 273.5 387 272.7 403.1C273.1 409.4 273.4 415.7 273.8 421.9C274.8 440 275.3 458.1 273.7 476.1C271.9 496.8 268.1 517.3 264.9 537.8C259 575.4 253.5 613.1 249.4 650.9C248.8 651.5 248.6 652.5 249.3 653.4C254.1 658.9 261.6 660.6 268.4 661.9C277.9 663.7 287.1 664.6 296.8 664.5C305.6 664.3 314.4 663.8 323.1 663.2C330.3 662.7 338.2 662.1 344.7 658.5C345.5 658.1 345.7 657.3 345.6 656.6C345.6 656.5 345.6 656.3 345.6 656.2C341.9 559.9 341.3 463.3 351.3 367.4C352.5 355.6 353.9 343.8 355.5 332.1C355.7 331.5 355.4 331 355 330.7Z" fill="#D7A15D"/>
<path d="M419.1 190C414.7 183.5 400.2 195.5 396.8 198.6C396 199.3 396 200.4 396.6 201.2C402.3 208 409.6 213.1 416.4 218.6C417.8 219.7 419.3 218.3 419.2 216.9C420.1 216.9 420.8 216.4 420.8 215.2C420.7 211 421.2 206.7 421.2 202.5C421.3 198.5 421.5 193.6 419.1 190Z" fill="#988C79"/>
<path d="M429.6 207.8C421.6 204 407.1 214.6 407.4 223.3C407 223.8 406.8 224.6 407.3 225.3C420.1 243.1 435.9 258.9 453.2 272.6C453.7 273 454.4 273.1 454.9 272.9C456 272.9 457.4 271.9 457.1 270.5C452.6 248.3 443.7 227.3 431.4 208.5C431.1 207.7 430.3 207.6 429.6 207.8Z" fill="#A07B52"/>
<path d="M455 260.7C451.9 262.5 449 264.5 446.6 267C448.8 268.9 451.1 270.7 453.4 272.6C453.9 273 454.6 273.1 455.1 272.9C456.2 272.9 457.6 271.9 457.3 270.5C456.6 267.1 455.8 263.9 455 260.7Z" fill="#988C79"/>
<path d="M384.5 259.8C386 249 383.7 237.8 379.3 228C377.1 223 374.1 218.4 371.4 213.6C368.2 208 366.2 202.6 365.5 196.2C365.5 195.9 365.4 195.6 365.2 195.4C365 195 364.7 194.6 364.1 194.4C357.9 192.2 350.5 189.8 347 183.8C344.8 180 346.4 174.8 347.4 170.9C348.1 168 348.9 165.1 349.1 162.2C349.8 161.7 350.2 160.8 349.7 159.8C346.8 154.4 342 150 337.9 145.5C334.3 141.6 327.5 135.2 328.6 129.2C329 126.8 325.4 125.8 325 128.2V128.3C324.5 128.6 324.2 129.1 324.2 129.8C324.3 140 321.2 149.6 316.2 158.5C310.9 167.7 302.8 174 296.1 182C291.1 188 283.8 191.6 279 197.7C273.8 204.3 273.1 214 273.4 222C273.8 231.4 276.7 240.4 279 249.5C281.5 259.2 283.6 269.1 285.3 279C286.5 285.9 287.3 292.8 287 299.8C286.6 307.9 285.3 316.1 284.3 324.2C284.2 325.2 284.8 325.8 285.5 325.9C285.6 325.9 285.6 326 285.7 326C302.9 331.7 320.7 336.1 338.9 335.4C346 335.2 352.9 333.6 359.9 332.8C364.5 332.3 370.2 332 374.2 329.2C375.6 330 377.7 329 377 327.3C372.5 316.3 372 304.8 374.4 293.2C376.4 281.7 382.8 271.5 384.5 259.8Z" fill="#E3C4B3"/>
<path d="M277 242.6C292.4 240 307.4 233.4 315.1 220.3C315.7 219.2 316.6 218.5 317.5 218.1C319 216.4 320.7 214.9 322.8 213.9C325.9 212.4 329.5 212.1 332.8 213.3C335.4 214.3 337.8 215.2 340.3 213.4C345.7 209.4 345.7 202.3 344.9 196.3C344.1 190.3 343.7 184.7 345.8 179.5C345.7 176.6 346.6 173.5 347.3 171C348 168.1 348.8 165.2 349 162.3C349.7 161.8 350.1 160.9 349.6 159.9C346.7 154.5 341.9 150.1 337.8 145.6C334.2 141.7 327.4 135.3 328.5 129.3C328.9 126.9 325.3 125.9 324.9 128.3V128.4C324.4 128.7 324.1 129.2 324.1 129.9C324.2 140.1 321.1 149.7 316.1 158.6C310.8 167.8 302.7 174.1 296 182.1C291 188.1 283.7 191.7 278.9 197.8C273.7 204.4 273 214.1 273.3 222.1C273.6 229 275.2 235.8 277 242.6Z" fill="#D8AA93"/>
<path d="M355.7 82.1C342.4 77.7 328.7 81.7 321.7 91C321.2 91.1 320.8 91.4 320.6 92C320.3 92.8 319.9 93.6 319.6 94.4C319 95.5 318.6 96.6 318.2 97.8C317.9 98.7 317.7 99.7 317.5 100.6C315.9 105.8 314.9 111.1 314.7 116.6C314.5 124.3 317.1 131.3 320.2 138.2C325.6 150 334.2 164 347.4 167.8C347.7 167.9 348 167.9 348.2 167.9C348.3 167.9 348.5 167.9 348.6 167.9C352.8 167.6 356.1 164.4 358.8 161.4C361.7 158.3 364.3 154.6 366.2 150.8C368.7 150.6 371.2 150.3 373.1 148.5C375.9 145.9 373.2 141.9 371.8 139.4C370.4 137 369.4 135 370.1 132.2C370.9 129 373.3 126 374.6 123C375.4 121.2 376 119.2 376.3 117.2C376.3 117.1 376.4 117 376.4 117C381.2 103.1 371.8 87.4 355.7 82.1Z" fill="#E3C4B3"/>
<path d="M366.8 130.6C366.2 132.6 364.7 134 363.5 133.6C362.3 133.2 361.7 131.3 362.3 129.3C362.9 127.3 364.4 125.9 365.6 126.3C366.8 126.7 367.4 128.6 366.8 130.6Z" fill="#323131"/>
<path d="M358 153.8C358.2 153.7 358.4 153.7 358.5 153.7C358.6 153.8 358.6 153.7 358.4 153.7C358.4 153.7 358.1 153.4 358.1 153.5C357.8 153.2 357.5 152.8 357.2 152.5C356.6 151.7 356.1 150.8 355.9 149.8C355.4 147.9 352.5 148.7 353 150.6C353.6 153 356.3 158 359.4 156.5C361.2 155.5 359.7 152.9 358 153.8Z" fill="#323131"/>
<path d="M384.5 259.8C386 249 383.7 237.8 379.3 228C377.1 223 374.1 218.4 371.4 213.6C369.3 209.9 367.7 206.3 366.7 202.4C366.5 203.9 366.3 205.3 366 206.7C364.2 216.7 359.3 228.1 348.7 231.2C337.2 234.6 326.4 227.2 318.9 219C313.5 213.1 307.3 204.9 305.1 196.4C304.5 195.6 303.8 194.8 303.1 194.1C298.3 189.3 291.8 189.5 285.7 191.1C283.2 193.1 280.9 195.2 278.9 197.6C273.7 204.2 273 213.9 273.3 221.9C273.7 231.3 276.6 240.3 278.9 249.4C281.4 259.1 283.5 269 285.2 278.9C286.4 285.8 287.2 292.7 286.9 299.7C286.5 307.8 285.2 316 284.2 324.1C284.1 325.1 284.7 325.7 285.4 325.8C285.5 325.8 285.5 325.9 285.6 325.9C302.8 331.6 320.6 336 338.8 335.3C345.9 335.1 352.8 333.5 359.8 332.7C364.4 332.2 370.1 331.9 374.1 329.1C375.5 329.9 377.6 328.9 376.9 327.2C372.4 316.2 371.9 304.7 374.3 293.1C376.4 281.7 382.8 271.5 384.5 259.8Z" fill="#869258"/>
<path d="M374.1 293C376.4 281.5 382.9 271.3 384.5 259.6C386 248.8 383.7 237.6 379.3 227.8C377.1 222.8 374.1 218.2 371.4 213.4C368.2 207.8 366.2 202.4 365.5 196C365.5 195.7 365.4 195.4 365.2 195.2C365 194.8 364.7 194.4 364.1 194.2C359.6 192.6 354.6 190.9 350.7 187.8C352.2 192.4 353.8 196.9 355.7 201.3C357.5 205.3 361.6 210.2 361.4 214.8C361.1 223.3 347.7 222.4 342.1 223.3C336.3 224.2 328.8 226.2 323.1 224C318.6 222.2 315.5 219 313.5 214.6C308.1 202.5 305.1 189.4 300.2 177.1C298.7 178.7 297.3 180.2 295.9 181.9C295.1 182.9 294.2 183.8 293.2 184.7C302.6 211.5 313 238.5 306.6 267.4C304.1 278.4 299.2 288.1 292.8 297.2C290.7 300.2 288.2 303.5 285.5 306.4C264.3 370.3 291.7 430.6 262.2 494.4C269.5 497.1 273.3 504.8 297.3 511.6C305.8 514 348.6 514.5 357.4 513.1C389.1 507.9 385.7 509.4 400.1 506C405.5 418.4 371.8 304.4 374.1 293Z" fill="#423C3C"/>
<path d="M284.6 317.6C285 318 286.8 319.3 286.7 319.3C288.4 320.5 290.2 321.6 292 322.5C293.2 323.1 294.3 323.7 295.5 324.2C295.8 324.3 296 324.4 296.1 324.5C296.4 324.6 296.6 324.7 296.9 324.8C301.8 326.7 306.9 328.1 312.1 329.2C313.3 329.4 314.6 329.7 315.8 329.9C316.4 330 319.3 330.4 318.3 330.3C320.1 330.5 321.8 330.7 323.6 330.7C337.5 331.1 347.1 330 360.8 325C361.3 324.8 365.6 322.8 363.4 324C364.8 323.3 366.2 322.5 367.6 321.6C368 321.3 371.2 318.9 370.1 319.9C371.2 319 372.2 318.1 373.3 317.2C374.5 316.1 375.8 315 377 313.9C375.3 305.3 374.2 298.8 374 295.2C372.9 295.2 371.8 295.1 370.8 295.1C354.8 294.1 338.8 290.2 324.5 283C317.3 279.4 311.3 274.1 306.5 267.9C304 278.6 299.1 288.1 292.8 297C290.7 300 288.2 303.3 285.5 306.2C284.5 309.3 283.6 312.4 282.7 315.5C283.3 316.3 283.9 317 284.6 317.6Z" fill="#323131"/>
<path d="M450.2 225.3C445.6 219.9 439.9 218.3 433.6 222C428 225.3 423.6 231.6 422.4 238C421.5 242.8 419.6 246.8 416.9 250.4C413.1 253.8 409.5 257.5 405.8 261C400.1 266.2 394.2 271.2 387.8 275.6C381.7 279.8 374.9 283.1 367.6 284.5C359.8 286 352.6 283.7 346.1 279.4C330.9 269.3 321.5 251.5 314.4 235.2C309 222.8 306.4 208.5 300 196.4C299.9 196 299.7 195.5 299.3 195.1C299.3 195.1 299.3 195.1 299.2 195C298.3 193.4 297.4 191.9 296.3 190.4C296 190 295.7 189.8 295.4 189.6C294.8 188.9 294.1 188.2 293.2 187.6C289.5 185.2 284.1 186.1 280.2 187.5C272.3 190.5 266.2 198.6 263.5 206.3C257.2 224.5 271.2 242.2 280.5 256.5C286.3 265.3 291.2 274.6 297.4 283.2C303.4 291.4 310.7 298.2 318.9 304.1C326.9 309.9 336.2 315.5 345.8 317.9C354.9 320.2 364.4 318.7 372.9 315.1C381.5 311.5 389 306 396.2 300.2C404.4 293.6 412.5 286.7 420.4 279.7C428.1 272.8 434.5 264.5 443.1 258.5C449 254.5 457.7 251.9 458.6 243.8C459.6 237.2 454.1 230 450.2 225.3Z" fill="#E3C4B3"/>
<path d="M283.1 260.4C286.3 257.4 289.6 254.3 293 251.6C299.5 246.3 308 242.2 316.7 240.4C315.9 238.7 315.1 236.9 314.4 235.2C309 222.8 306.4 208.5 300 196.4C299.9 196 299.7 195.5 299.3 195.1C299.3 195.1 299.3 195.1 299.2 195C298.3 193.4 297.4 191.9 296.3 190.4C296 190 295.7 189.8 295.4 189.6C294.8 188.9 294.1 188.2 293.2 187.6C289.5 185.2 284.1 186.1 280.2 187.5C272.3 190.5 266.2 198.6 263.5 206.3C257.2 224.5 271.2 242.2 280.5 256.5C281.5 257.8 282.3 259.1 283.1 260.4Z" fill="#869258"/>
<path d="M346.8 306.2C340.9 306.2 333.5 307 328 310.1C333.7 313.5 339.7 316.4 346 317.9C354.1 319.9 362.6 318.9 370.4 316.1C363.8 310.4 355.6 306.2 346.8 306.2Z" fill="#C56E5E"/>
<path d="M303.5 236.3C305.8 235.1 308.1 233.9 310.5 232.9C309.9 231.8 309.4 230.7 308.8 229.6C306.5 230.6 304.2 231.7 301.9 232.9C302.5 234.1 303 235.2 303.5 236.3Z" fill="#E4E3DE"/>
<path d="M292.5 243C294.8 241.4 297.1 240 299.5 238.6C299 237.5 298.4 236.3 297.9 235.2C295.4 236.6 293 238.2 290.7 239.8C291.3 240.8 291.9 241.9 292.5 243Z" fill="#E4E3DE"/>
<path d="M286.8 242.5C284.3 244.4 281.8 246.4 279.3 248.4C279.9 249.5 280.6 250.6 281.2 251.7C283.7 249.6 286.2 247.5 288.8 245.6C288.2 244.5 287.5 243.5 286.8 242.5Z" fill="#E4E3DE"/>
<path d="M299.6 228.1C299.9 228.6 300.1 229.1 300.4 229.7C302.7 228.5 305 227.3 307.4 226.2C306.9 225 306.5 223.9 306.2 222.7C303.7 223.8 301.3 225 298.8 226.3C299.1 226.9 299.3 227.5 299.6 228.1Z" fill="#E4E3DE"/>
<path d="M289 236.5C291.5 234.8 294 233.3 296.6 231.8C296.1 230.6 295.7 229.5 295.2 228.3C292.5 229.9 289.8 231.5 287.2 233.2C287.8 234.3 288.4 235.4 289 236.5Z" fill="#E4E3DE"/>
<path d="M283 236.2C280.5 238 278.1 239.9 275.7 241.9C276.3 243 276.9 244.1 277.6 245.2C280 243.2 282.5 241.3 285 239.4C284.3 238.3 283.6 237.2 283 236.2Z" fill="#E4E3DE"/>
<path d="M382.4 82.1C380.4 80.5 375 79.6 374.7 76.8C374.4 73.4 373.3 70.9 370.8 68.6C366.3 64.5 359.8 66.2 354.3 65.8C351.9 65.7 349.5 63.7 347.5 62.6C345.5 61.5 343.1 61.1 340.8 60.9C334.3 60.1 326.8 62.1 322.3 66.7C312.8 65.4 303.5 67.6 300.7 78.9C299.8 82.4 300.2 86 299 89.4C298 92.3 293.4 94.1 291.1 95.6C283.2 101 278.9 107.7 279 117.6C279.1 122.7 278.6 126.1 274.7 129.5C271.7 132.1 268.7 134.3 266.9 137.8C264.8 141.8 265.3 146.2 266.4 150.4C267 152.7 267.7 155 267.3 157.5C266.9 159.9 265.2 162.1 264 164.1C260.4 170.1 259.3 178.5 264.9 183.8C269.1 187.8 275.4 187.8 280.7 188.6C282.9 189 285.4 189.4 287 191C289.4 193.2 290.5 196.8 292.4 199.4C297.4 206 304.7 204.7 310.8 200.4C317.1 196 322.3 205.9 328.5 206.6C337.6 207.5 340.9 194.3 341.3 187.6C341.4 185.3 341.1 183 340.7 180.7C340.4 178.8 339 177.2 338.8 175.3C338.7 173.6 340.7 171.9 341.7 170.8C343.2 169.1 344.3 167.3 345.2 165.1C346.7 161.1 345.3 156.2 344.2 152.3C342.9 147.8 342.4 144.4 346.1 141.1C348.9 138.7 351.3 136.5 352.6 132.9C354.1 129 352.6 124.6 353.2 120.6C353.6 117.9 358.3 117.9 360.4 116.8C363.9 114.9 365.6 110.4 366.3 106.8C366.3 106.7 366.3 106.7 366.3 106.6C369 107.1 371.7 107.5 374.4 107.2C380.3 106.6 384.7 102.4 386.7 97C388.7 91.3 387.3 85.9 382.4 82.1Z" fill="#323131"/>
<rect x="508.2" y="427.9" width="275.8" height="297.4" fill="#8A4433"/>
<rect x="136.8" y="388.3" width="647.2" height="40.3" fill="#323131"/>
<path d="M241.2 699.5H199.9V427.9H259.5L241.2 699.5Z" fill="#69332B"/>
<path d="M224.1 725.3H182.9V427.9H242.5L224.1 725.3Z" fill="#884535"/>
<path d="M747.8 388.3L745.5 364.9C745.5 347.6 736.9 332.9 724.8 327.3H703.2C691.1 332.9 682.5 347.6 682.5 364.9L680.3 388.3H747.8Z" fill="#D7A15D"/>
<path d="M737.2 358.8C737.2 371.6 726.8 381.9 714.1 381.9C701.4 381.9 691 371.5 691 358.8C691 346 701.4 335.7 714.1 335.7C726.8 335.7 737.2 346.1 737.2 358.8Z" fill="#EEEEE3"/>
<rect x="707.6" y="317.8" width="12.9" height="9.6" fill="#974A3A"/>
<path d="M674.4 298.2L676.3 307.4C677.5 313.7 678.9 317.8 682.1 317.8H746C749.2 317.8 750 314.9 751.8 307.4L753.9 298.2H674.4Z" fill="#D7A15D"/>
<path d="M713.6 342.1C713.6 348.1 713.6 354 713.6 360C713.6 360.6 714.6 360.6 714.6 360C714.6 354 714.6 348.1 714.6 342.1C714.6 341.4 713.6 341.4 713.6 342.1Z" fill="#323131"/>
<path d="M717 359.5C717 360.9 715.8 362.1 714.4 362.1C713 362.1 711.8 360.9 711.8 359.5C711.8 358.1 713 356.9 714.4 356.9C715.8 356.9 717 358.1 717 359.5Z" fill="#974A3A"/>
<path d="M714.1 339.6C714.2 339.6 714.3 339.6 714.4 339.6C714.4 338.3 714.4 337 714.5 335.7C714.4 335.7 714.3 335.7 714.1 335.7C713.7 335.7 713.4 335.7 713 335.7C713 337 712.9 338.3 712.9 339.6C713.3 339.6 713.6 339.6 714.1 339.6Z" fill="#323131"/>
<path d="M694.8 359.2C693.5 359.2 692.2 359.3 690.9 359.3C690.9 359.8 690.9 360.3 691 360.8C692.3 360.8 693.6 360.7 694.9 360.7C694.8 360.2 694.8 359.7 694.8 359.2Z" fill="#323131"/>
<path d="M699.8 345.8C700.1 345.4 700.5 345.1 700.8 344.7C699.9 343.8 699 342.9 698 342C697.6 342.3 697.3 342.7 697 343.1C698 344 698.9 344.9 699.8 345.8Z" fill="#323131"/>
<path d="M696.7 350.4C695.5 349.9 694.3 349.4 693.1 348.9C692.9 349.3 692.7 349.8 692.5 350.2C693.7 350.7 694.9 351.2 696.1 351.7C696.3 351.3 696.5 350.9 696.7 350.4Z" fill="#323131"/>
<path d="M705.8 341.4C706.2 341.2 706.7 341 707.2 340.8C706.7 339.6 706.1 338.4 705.6 337.3C705.1 337.5 704.7 337.7 704.2 337.9C704.3 338.1 704.4 338.2 704.4 338.4C704.9 339.4 705.3 340.4 705.8 341.4Z" fill="#323131"/>
<path d="M732.3 352.6C733.5 352.1 734.7 351.6 735.9 351.2C735.7 350.7 735.6 350.3 735.4 349.8C734.2 350.3 733 350.8 731.8 351.2C732 351.7 732.1 352.2 732.3 352.6Z" fill="#323131"/>
<path d="M727.1 344.7C727.9 343.6 728.6 342.6 729.2 341.4C728.8 341.1 728.4 340.8 728 340.4C727.4 341.5 726.7 342.6 725.9 343.7C726.4 344.1 726.8 344.4 727.1 344.7Z" fill="#323131"/>
<path d="M721.3 341C721.7 339.8 722.1 338.6 722.6 337.4C722.1 337.2 721.7 337 721.2 336.9C720.7 338.1 720.3 339.3 719.9 340.5C720.3 340.6 720.8 340.8 721.3 341Z" fill="#323131"/>
<path d="M737.2 357.9C735.9 357.9 734.6 358 733.3 358C733.3 358.3 733.3 358.6 733.3 358.8C733.3 359 733.3 359.2 733.3 359.5C734.6 359.5 735.9 359.4 737.2 359.4C737.2 359.2 737.2 359 737.2 358.9C737.2 358.5 737.2 358.2 737.2 357.9Z" fill="#323131"/>
<path d="M726.3 373.7C727.2 374.6 728.1 375.6 729 376.5C729.4 376.2 729.7 375.9 730.1 375.5C729.2 374.6 728.3 373.7 727.4 372.7C727 373.1 726.6 373.4 726.3 373.7Z" fill="#323131"/>
<path d="M696.3 366.3C695.1 366.8 693.9 367.3 692.7 367.8C692.9 368.3 693.1 368.7 693.3 369.1C694.5 368.6 695.7 368.1 696.9 367.6C696.7 367.2 696.5 366.8 696.3 366.3Z" fill="#323131"/>
<path d="M719.5 377.3C719.9 378.5 720.3 379.8 720.7 381C721.2 380.9 721.6 380.7 722.1 380.5C721.7 379.3 721.3 378 720.9 376.8C720.4 377 720 377.2 719.5 377.3Z" fill="#323131"/>
<path d="M731.4 367.2C732.6 367.7 733.8 368.1 735 368.6C735.2 368.1 735.4 367.7 735.6 367.2C734.4 366.7 733.2 366.3 732 365.8C731.8 366.3 731.6 366.8 731.4 367.2Z" fill="#323131"/>
<path d="M714.1 378.1H714C714 379.4 714.1 380.7 714.1 382C714.6 382 715.1 382 715.6 381.9C715.6 380.6 715.5 379.3 715.5 378C715 378.1 714.5 378.1 714.1 378.1Z" fill="#323131"/>
<path d="M701.7 373.6C700.9 374.6 700 375.6 699.2 376.6C699.6 376.9 700 377.2 700.4 377.5C701.2 376.5 702.1 375.5 702.9 374.5C702.4 374.2 702 373.9 701.7 373.6Z" fill="#323131"/>
<path d="M707.9 377.1C707.5 378.3 707.2 379.6 706.8 380.8C707.3 381 707.8 381.1 708.2 381.2C708.6 380 708.9 378.7 709.3 377.5C708.8 377.4 708.4 377.2 707.9 377.1Z" fill="#323131"/>
<path d="M550.2 316.4V336.4C550.2 351.1 559.6 363.7 572.8 368.5H596.5C609.7 363.7 619.1 351.2 619.1 336.4V316.4H550.2Z" fill="#EEEEE3"/>
<path d="M662.7 294.2V286.6C662.7 280.5 658.5 275.6 653.3 275.6H579.6C574.4 275.6 570.2 280.5 570.2 286.6V286.3H562.6V296.5H570.2V311H598.4V305.3H627.1L627.3 311.3V333.4C627.3 349.6 618.2 363.5 605.5 368.8H582.7C571.5 368.8 577.3 368.8 566.1 368.6C562.4 368.9 558.5 370 555.4 371.6C553.9 372.4 552.2 373.6 550.8 375C550.7 375.3 550.5 375.5 550.2 375.7C549.9 375.9 549.7 376.2 549.5 376.4C549.1 377 548.7 377.5 548.4 378.1C548 379.1 547.9 380.2 548 381.4C549.8 385.6 553.9 388.5 558.8 388.5H650.9C655.2 388.5 658.7 386.2 660.7 382.8C661.1 382.2 661.1 381.5 661.1 381C661.1 380.6 661.1 380.2 661.1 379.8C660.8 378.3 660.3 377 659.7 376C658 373.2 655.8 371 653.8 368.5C650.8 364.6 650 363.2 649.1 359.1L648.1 353.7L643.9 305.4H653.3C658.5 305.3 662.7 300.3 662.7 294.2Z" fill="#BF5548"/>
<path d="M627.1 314.2H644.6L643.8 305.4H626.9L627.1 311.1V314.2Z" fill="#974A3A"/>
<path d="M549.2 378.4C548.8 379.4 548.7 380.5 548.8 381.7C550.6 385.9 554.7 388.8 559.6 388.8H651.7C656 388.8 659.5 386.5 661.5 383.1C661.9 382.5 661.9 381.8 661.9 381.3C661.9 380.9 661.9 380.5 661.9 380.1C661.8 379.4 661.6 378.8 661.3 378.2H549.3C549.3 378.1 549.2 378.2 549.2 378.4Z" fill="#974A3A"/>
<rect x="570.2" y="305" width="28.2" height="5.9" fill="#974A3A"/>
<rect x="578.8" y="309.6" width="11.8" height="6.7" fill="#988C79"/>
<path d="M502.7 387.7H452.3L459.7 366.6H497.5L502.7 387.7Z" fill="#E4E3DE"/>
<path d="M418.9 350.5L421.7 358.4C423.4 363.7 425.5 367.3 430.2 367.3H524.6C529.3 367.3 530.5 364.8 533.1 358.4L536.2 350.5H418.9Z" fill="#E4E3DE"/>
<path d="M459.7 319.9C459.6 317.5 458.3 316.3 456.6 315.8C457.5 314.2 457.8 312.3 456.7 310.2C456.1 309 454.6 308.5 453.2 308.4C453.2 307.5 452.8 306.5 452 305.6C451.3 304.9 450.3 304.4 449.2 304.2C448.6 301.5 446.1 299.7 443.8 298.3C442.8 297.7 441.3 298.2 441.1 299.4C440.9 300.7 441.3 302.9 440.4 304C437.6 303.4 435.1 304.6 434.9 307.9C434.9 308.2 434.9 308.5 434.9 308.8C433.4 309.1 432.1 310.1 431.5 312.2C431.1 313.4 431.3 314.9 431.9 316.4C431.2 316.6 430.6 317 430 317.6C428.9 318.6 428.5 320.9 429.5 322.2C430.3 323.2 431.2 323.9 432.3 324.3C432.6 324.6 433 324.8 433.5 324.8C433.7 324.8 433.9 324.8 434.2 324.8C434.5 324.9 434.9 324.9 435.3 324.9C435.6 324.9 435.9 324.9 436.1 324.8C442.7 324.8 449.3 324.8 455.9 324.8C456.6 324.8 457.1 324.5 457.4 324C458.7 323.2 459.8 321.9 459.7 319.9Z" fill="#A07B52"/>
<path d="M454.8 346.9C454.8 349.1 453.1 350.8 451.1 350.8H436.7C434.7 350.8 433 349 433 346.9L429.4 324.6C429.4 322.4 434.7 322.9 436.7 322.9H451.1C453.1 322.9 458.9 322.4 458.9 324.6L454.8 346.9Z" fill="#323131"/>
<path d="M494.5 319.5C494.4 317.1 493.1 315.9 491.4 315.4C492.3 313.8 492.6 311.9 491.5 309.8C490.9 308.6 489.4 308.1 488 308C488 307.1 487.6 306.1 486.8 305.2C486.1 304.5 485.1 304 484 303.8C483.4 301.1 480.9 299.3 478.6 297.9C477.6 297.3 476.1 297.8 475.9 299C475.7 300.3 476.1 302.5 475.2 303.6C472.4 303 469.9 304.2 469.7 307.5C469.7 307.8 469.7 308.1 469.7 308.4C468.2 308.7 466.9 309.7 466.3 311.8C465.9 313 466.1 314.5 466.7 316C466 316.2 465.4 316.6 464.8 317.2C463.7 318.2 463.3 320.5 464.3 321.8C465.1 322.8 466 323.5 467.1 323.9C467.4 324.2 467.8 324.4 468.3 324.4C468.5 324.4 468.7 324.4 469 324.4C469.3 324.5 469.7 324.5 470.1 324.5C470.4 324.5 470.7 324.5 470.9 324.4C477.5 324.4 484.1 324.4 490.7 324.4C491.4 324.4 491.9 324.1 492.2 323.6C493.5 322.8 494.6 321.6 494.5 319.5Z" fill="#A07B52"/>
<path d="M489.6 346.6C489.6 348.8 487.9 350.5 485.9 350.5H471.5C469.5 350.5 467.8 348.7 467.8 346.6L464.2 324.3C464.2 322.1 469.5 322.6 471.5 322.6H485.9C487.9 322.6 493.7 322.1 493.7 324.3L489.6 346.6Z" fill="#323131"/>
<path d="M528.1 319.1C528 316.7 526.7 315.5 525 315C525.9 313.4 526.2 311.5 525.1 309.4C524.5 308.2 523 307.7 521.6 307.6C521.6 306.7 521.2 305.7 520.4 304.8C519.7 304.1 518.7 303.6 517.6 303.4C517 300.7 514.5 298.9 512.2 297.5C511.2 296.9 509.7 297.4 509.5 298.6C509.3 299.9 509.7 302.1 508.8 303.2C506 302.6 503.5 303.8 503.3 307.1C503.3 307.4 503.3 307.7 503.3 308C501.8 308.3 500.5 309.3 499.9 311.4C499.5 312.6 499.7 314.1 500.3 315.6C499.6 315.8 499 316.2 498.4 316.8C497.3 317.8 496.9 320.1 497.9 321.4C498.7 322.4 499.6 323.1 500.7 323.5C501 323.8 501.4 324 501.9 324C502.1 324 502.3 324 502.6 324C502.9 324.1 503.3 324.1 503.7 324.1C504 324.1 504.3 324.1 504.5 324C511.1 324 517.7 324 524.3 324C525 324 525.5 323.7 525.8 323.2C527.1 322.5 528.2 321.2 528.1 319.1Z" fill="#A07B52"/>
<path d="M523.2 346.2C523.2 348.4 521.5 350.1 519.5 350.1H505.1C503.1 350.1 501.4 348.3 501.4 346.2L497.8 323.9C497.8 321.7 503.1 322.2 505.1 322.2H519.5C521.5 322.2 527.3 321.7 527.3 323.9L523.2 346.2Z" fill="#323131"/>
<path d="M231.3 346.6L218.7 297.1C218.1 294.9 215.6 293.6 213.1 294.3C210.5 295 208.9 297.3 209.5 299.5L222.1 349C216.7 352.9 214.1 360.8 216.2 368.9C218.8 378.9 227.5 385.3 235.8 383.2C244.1 381.1 248.7 371.3 246.1 361.3C243.9 353.1 237.9 347.4 231.3 346.6Z" fill="#D5CFBF"/>
<path d="M289.5 339.2H201.4C200.4 342.5 199.9 346 199.9 349.6C199.9 367 211.7 381.8 228.4 387.9H262.4C279.1 381.8 290.9 367 290.9 349.6C290.9 346 290.4 342.5 289.5 339.2Z" fill="#BF5548"/>
<path d="M286.4 350.2C284.1 349.7 283.7 347.7 280.9 347.9C278.9 348 277.6 349.8 276.4 351.1C275.1 352.5 272.2 349.2 270.9 348.6C269.4 347.9 267.5 348.1 266 348.9C264.9 349.5 263.9 350.2 263 351C260.8 352.7 259.4 351 257.9 349.7C253.5 345.9 250.3 350.2 246.3 351.6C244 352.4 241.8 349.6 239.7 349C237.3 348.3 235.2 348.8 233.1 350C232.4 350.4 231.8 351 231.2 351.6C230.3 352.4 227.3 350 226.5 349.5C224.4 348.2 222.5 347.7 220.1 348.3C217.8 348.8 216.6 350.8 214.9 352C214 352.6 209.6 348.6 207.9 348.5C206 348.4 204.4 349.2 202.8 350.3C201.7 351.1 200.9 351.9 200 352.2C200.1 353.4 200.3 354.7 200.5 355.9C201.9 355.5 203.2 354.7 204.7 353.6C207.6 351.4 208.5 353.1 210.9 354.9C212.9 356.4 215.3 356.3 217.3 354.9C218.1 354.4 218.7 353.6 219.4 353C221.4 351.1 223.4 352.1 225.3 353.3C227.3 354.6 229.7 356.1 232.1 355.4C235.1 354.6 235.9 351.1 239.7 353.2C241.8 354.4 243.8 355.9 246.4 355.4C248.7 355 250.3 353.6 252.3 352.4C254.9 350.8 257.4 355.1 260 355.7C262.4 356.3 264.6 354.6 266.3 353.2C269.4 350.8 270.6 353.6 273.2 354.8C274.8 355.6 277 355.5 278.4 354.4C279.5 353.5 281.2 350.9 282.7 352.5C283.4 353.3 284.4 353.6 285.4 353.9C287.1 354.5 288.9 354.5 290.5 354.1C290.7 352.7 290.8 351.4 290.8 350C289.6 350.5 288 350.6 286.4 350.2Z" fill="#CBB994"/>
<path d="M328.1 343.5C320.5 343.5 314.4 349.5 314.4 357H341.8C341.8 349.5 335.6 343.5 328.1 343.5Z" fill="#D7A15D"/>
<path d="M338.7 379.1C338.7 381.3 337 383 335 383H320.6C318.6 383 316.9 381.2 316.9 379.1L313.3 356.8C313.3 354.6 318.6 355.1 320.6 355.1H335C337 355.1 342.8 354.6 342.8 356.8L338.7 379.1Z" fill="#323131"/>
<path d="M361.2 343.9C353.6 343.9 347.5 349.9 347.5 357.4H374.9C374.9 349.9 368.8 343.9 361.2 343.9Z" fill="#D7A15D"/>
<path d="M371.9 379.5C371.9 381.7 370.2 383.4 368.2 383.4H353.8C351.8 383.4 350.1 381.6 350.1 379.5L346.5 357.2C346.5 355 351.8 355.5 353.8 355.5H368.2C370.2 355.5 376 355 376 357.2L371.9 379.5Z" fill="#323131"/>
<path d="M293.5 343.1C285.9 343.1 279.8 349.1 279.8 356.6H307.2C307.2 349.2 301.1 343.1 293.5 343.1Z" fill="#D7A15D"/>
<path d="M304.2 378.8C304.2 381 302.5 382.7 300.5 382.7H286C284 382.7 282.3 380.9 282.3 378.8L278.7 356.5C278.7 354.3 284 354.8 286 354.8H300.4C302.4 354.8 308.2 354.3 308.2 356.5L304.2 378.8Z" fill="#323131"/>
<path d="M258.9 371.7L262.2 379.6C264.2 384.9 266.7 388.5 272.2 388.5H383.5C389 388.5 390.5 386 393.5 379.6L397.1 371.7H258.9Z" fill="#988C79"/>
<path fill-rule="evenodd" clip-rule="evenodd" d="M608.3 614.4C612.9 615 616 619.2 617.1 623.5C620.3 636.1 613.8 650.5 608.6 661.4C603.3 672.5 597.2 683.8 589.2 693.2C588.4 694.1 587.6 694.5 586.7 694.6C581.9 698 575.8 699.5 569.9 699.6C561.5 699.7 554.3 697.1 548.1 691.4C537.947 682.043 532.451 669.218 527.074 656.673L527 656.5C526.2 654.9 525.4 653.1 524.7 651.2L523.8 649.1C523.5 648.4 523.4 647.7 523.4 647.1C521.8 641 522 634.6 528.2 632C532.9 630.1 537 631.7 540.5 634.9C539.7 631.7 539 628.4 538.5 625.1C537.8 619.9 537.1 614.4 538.5 609.2C539.4 605.7 541.8 601.2 545.8 600.3C553.473 598.543 557.557 610.12 559.71 616.224C559.886 616.723 560.049 617.185 560.2 617.6C561 619.7 561.7 621.8 562.4 623.9L562.4 623.9C561.8 614.3 561.5 604.6 562.4 595.1L562.422 594.883C563.119 588.002 564.067 578.655 570.4 574.4C577.6 569.6 583.8 576 586.3 582.4C589.925 591.938 590.638 602.75 591.303 612.84C591.336 613.329 591.368 613.815 591.4 614.3C591.8 620.7 592 627.1 592.1 633.4C593.9 628.6 596.1 623.9 599.1 620C601.3 617.2 604.3 613.9 608.3 614.4ZM546.311 608.192C546.333 608.2 546.358 608.2 546.4 608.2C546.4 608.2 546.3 608.2 546.2 608.1C546.258 608.158 546.282 608.182 546.311 608.192Z" fill="#D7A15D"/>
<path fill-rule="evenodd" clip-rule="evenodd" d="M591.3 642.3C593.9 642.7 595.7 645 596.3 647.5C598.2 654.7 594.5 662.9 591.2 669.2C588.2 675.5 584.7 681.9 580.2 687.3C579.8 687.8 579.3 688.1 578.8 688.1C576.1 690 572.6 690.8 569.2 690.9C564.4 691 560.3 689.5 556.8 686.2C551.07 680.865 547.975 673.676 544.912 666.561L544.8 666.3C544.692 666.057 544.577 665.807 544.459 665.55C544.138 664.853 543.792 664.103 543.5 663.3C543.4 662.9 543.2 662.5 543 662.1C542.8 661.7 542.8 661.3 542.8 660.9C541.9 657.4 542.1 653.8 545.6 652.3C548.3 651.1 550.6 652.1 552.6 653.9C552.54 653.617 552.481 653.336 552.422 653.057C552.083 651.461 551.755 649.917 551.5 648.3C551.1 645.3 550.7 642.1 551.5 639.2C552.1 637.2 553.4 634.6 555.7 634.1C560.122 633.159 562.508 640.008 563.691 643.403C563.765 643.617 563.835 643.817 563.9 644L565.1 647.6C564.8 642.2 564.6 636.6 565.1 631.2C565.5 627.3 566.1 621.8 569.7 619.4C573.8 616.7 577.4 620.3 578.8 624C580.86 629.337 581.254 635.376 581.624 641.049C581.65 641.435 581.675 641.818 581.7 642.2C581.9 645.9 582 649.5 582.1 653.1C583.1 650.4 584.4 647.7 586.1 645.5C587.3 643.9 589 642 591.3 642.3ZM556.1 638.8C556.1 638.8 556 638.8 556 638.7L556.1 638.8Z" fill="#C38E55"/>
<path d="M596.4 748.5C596.4 755 592.4 760.3 587.5 760.3H552.6C547.7 760.3 543.7 755 543.7 748.5L535 681.9C535 675.4 547.7 676.8 552.6 676.8H587.5C592.4 676.8 606.4 675.4 606.4 681.9L596.4 748.5Z" fill="#323131"/>
<path d="M710.8 606.2C712.8 596.6 712 587.6 708.8 578.4C705.8 569.8 701.3 561.9 697.8 553.5C695.1 547 692.7 539.9 692.5 532.8C692.4 528.7 692.1 524.6 691.7 520.4C691.2 515 690.5 509.6 689.2 504.4C688.8 502.8 688.4 501.1 687.7 499.4C682.9 515.1 677.4 530.6 674.3 546.8C672.2 557.8 671.5 568.8 672.9 580C673.9 587.9 674.4 595.6 673.1 603.1C673.2 612.6 669.2 621.3 667.8 630.7C664.7 651 671.3 672.7 679.6 691C680.4 692.8 682 693.4 683.4 693.1C690.2 693.7 698.8 689.5 703.5 684.9C710.1 678.5 710.4 669.2 707.3 661.1C705.9 657.4 704 653.8 702.8 650C701.3 645.4 701.7 640.3 702.6 635.6C704.5 625.6 708.7 616.2 710.8 606.2Z" fill="#616D3F"/>
<path d="M681.7 638.5C679.1 629.4 681.8 619.3 683.1 610.2C682.3 605.7 680.7 601.4 678.3 597.4C674.7 591.5 670.1 586.8 665.8 581.3C656.3 569.1 651.7 555.1 646.9 540.7C644.7 534.1 641.9 528.1 637.5 522.5C636.9 521.8 636.4 521.1 635.8 520.4C636.6 524.7 637.3 528.9 637.2 533.3C637.1 537.8 634.9 542.1 633.4 546.3C632.3 549.4 631.4 552.6 630.9 555.9C628.5 572 641.9 582.2 646.9 596.1C652.2 611.1 648.6 627.7 649.5 643.2C650.5 661.1 659.3 678.4 670.8 691.8C671.8 693 673 693.3 674.1 693.1C675.4 693.2 676.6 692.5 677.3 691C681.1 682.3 686.5 673.9 688.5 664.5C689.4 660.4 689.2 656.3 688.1 652.3C686.6 647.5 683.1 643.5 681.7 638.5Z" fill="#869258"/>
<path d="M681.7 677.2C672.1 669.3 670.1 656.2 668.3 644.6C666.3 631.3 665 617.5 658.4 605.5C655.7 600.7 652 596.5 647.6 593.2C646.4 592.6 645.2 592.2 644.1 591.7C636.8 589 629.3 587.1 621.9 584.8C612.9 582.1 603.6 578.6 596 573.1C596.1 574.8 596.3 576.4 596.7 578.1C598.2 584.3 602.3 589.7 606.5 594.3C615.1 603.6 627.4 610.4 634.1 621.4C636.5 625.3 636.8 630.7 637.5 635.1C638.4 641.2 639.3 647.2 640.8 653.1C643.9 664.7 651.1 674.3 664.2 671.9C665.2 671.7 665.9 671.3 666.4 670.7C668.6 675.2 671.6 679.3 675.8 682.8C679.9 686.3 685.8 680.5 681.7 677.2Z" fill="#616D3F"/>
<path d="M728 595C726.1 586.2 721.7 578.1 719.9 569.2C718.8 563.8 719.5 558.3 720.3 553.2C721.2 547.2 722 541.3 722.4 535.2C722.6 531.6 722.8 526.7 722.1 522.1C715.9 532 710.4 542.4 706.8 553.5C704.5 560.4 702.6 567.5 701.7 574.7C700.8 581.5 699.7 588.4 697.5 594.9C695.1 601.9 691.8 608 687.9 614.1C687.8 614.2 687.8 614.3 687.7 614.4C686.2 618.9 683.7 623.1 681.9 627.5C679.9 632.3 678.5 637.4 677.5 642.5C676.4 648.3 676.1 654 676.2 659.8C676.5 662 677 664.2 677.5 666.4C678 668.6 677.8 670.6 676.9 672.2C677.4 676.8 677.9 681.3 678.5 685.8C678.6 686.3 678.7 686.8 678.9 687.2C679.2 688 679.7 688.7 680.5 689.3C682.4 690.7 685.3 690.3 687.4 690C691.1 689.5 694.7 688.7 698.3 687.5C705.4 685.1 710.8 679.6 713.5 672.6C716.2 665.5 714.6 657.1 715.3 649.7C716.2 640.1 721.5 631.1 725 622.3C728.6 613.7 730.1 604.6 728 595Z" fill="#869258"/>
<path d="M721.8 594.8C713.2 603 708.2 613.9 702.7 624.5C701.2 629.6 699.4 634.6 697.5 639.4C695 645.6 691.9 651.6 688.4 657.2C686.1 661 682.6 664.5 682.3 669.2C681.3 683.2 705.9 679.1 705.4 691.3C705.4 691.6 705.3 691.8 705.4 692.1C705.3 694.4 706.8 695.6 708.6 695.8C710.2 696.3 712 695.8 713.1 694C715.5 689.8 717.2 685.3 718.7 680.8C720.4 675.6 721.4 669.9 723.8 665.1C728 656.8 733.8 649.5 735 639.9C736.2 630.6 733 621 737.1 612.1C739.8 606.3 745.4 601.8 749.4 596.9C752.6 593 756.7 587.8 757 582.4C744.5 581.1 730.7 586.2 721.8 594.8Z" fill="#616D3F"/>
<path d="M719.9 746.4C719.9 754 714.1 760.2 706.9 760.2H656C648.8 760.2 643 754 643 746.4L630.2 668.2C630.2 660.6 648.8 662.2 655.9 662.2H706.8C714 662.2 734.4 660.5 734.4 668.2L719.9 746.4Z" fill="#323131"/>
</svg>
