<svg width="48" height="43" viewBox="0 0 48 43" fill="none" xmlns="http://www.w3.org/2000/svg">
<path fill-rule="evenodd" clip-rule="evenodd" d="M1.9 15.7C2.7 17.3 3.9 18.1 5.5 18.1H42.3C44 18.1 45.1 17.3 45.9 15.7C46.6 14.1 46.5 12.5 45.6 11C43.7 7.9 40.7 5.3 36.8 3.2C32.9 1.1 28.6 0.0999985 23.9 0.0999985C19.2 0.0999985 14.9 1.1 11 3.2C7.1 5.3 4.1 7.9 2.2 11C1.2 12.5 1.1 14.1 1.9 15.7ZM46.7 22.4C45.8 21.5 44.7 21.1 43.5 21.1H4.5C3.2 21.1 2.2 21.5 1.3 22.4C0.4 23.3 0 24.4 0 25.6C0 26.9 0.4 27.9 1.3 28.8C2.2 29.7 3.2 30.1 4.5 30.1H43.5C44.8 30.1 45.8 29.7 46.7 28.8C47.6 27.9 48 26.9 48 25.6C48 24.3 47.6 23.3 46.7 22.4ZM45 33.1C45.4 33.1 45.8 33.2 46.1 33.5C46.4 33.8 46.5 34.1 46.5 34.6V36.1C46.5 37.7 45.9 39.1 44.7 40.3C43.5 41.5 42.1 42.1 40.5 42.1H7.5C5.9 42.1 4.5 41.5 3.3 40.3C2.1 39.1 1.5 37.7 1.5 36.1V34.6C1.5 34.2 1.6 33.8 1.9 33.5C2.2 33.2 2.5 33.1 3 33.1H45ZM12 7.6C12.5 7.6 12.8 7.7 13.1 8C13.4 8.3 13.5 8.7 13.5 9.1C13.5 9.6 13.4 9.9 13.1 10.2C12.8 10.5 12.4 10.6 12 10.6C11.5 10.6 11.2 10.5 10.9 10.2C10.6 9.9 10.5 9.5 10.5 9.1C10.5 8.6 10.6 8.3 10.9 8C11.2 7.7 11.6 7.6 12 7.6ZM25.1 5C24.8 4.7 24.5 4.6 24 4.6C23.6 4.6 23.2 4.7 22.9 5C22.6 5.3 22.5 5.6 22.5 6.1C22.5 6.5 22.6 6.9 22.9 7.2C23.2 7.5 23.5 7.6 24 7.6C24.4 7.6 24.8 7.5 25.1 7.2C25.4 6.9 25.5 6.6 25.5 6.1C25.5 5.7 25.4 5.3 25.1 5ZM36 7.6C36.5 7.6 36.8 7.7 37.1 8C37.4 8.3 37.5 8.7 37.5 9.1C37.5 9.6 37.4 9.9 37.1 10.2C36.8 10.5 36.4 10.6 36 10.6C35.5 10.6 35.2 10.5 34.9 10.2C34.6 9.9 34.5 9.5 34.5 9.1C34.5 8.6 34.6 8.3 34.9 8C35.2 7.7 35.6 7.6 36 7.6Z" fill="#B77E49"/>
</svg>
